<?xml version="1.0" encoding="utf-8"?>
<svg xmlns="http://www.w3.org/2000/svg" height="1024" viewBox="0 0 4096 4096" width="1024">
<path d="M2045.62 350.25 c-.78 1.24 -5.02 10.8 -9.42 21.25 -4.4 10.45 -10.26 24.85&#xA;-13.03 32 -2.77 7.15 -7.14 17.95 -9.71 24 -2.57 6.05 -7.05 17.07 -9.97 24.5&#xA;-2.91 7.43 -8.88 22.5 -13.26 33.5 -5.85 14.7 -23.13 58.81 -31.74 81 -4.44&#xA;11.44 -13.43 33.76 -17.12 42.5 -1.28 3.03 -2.33 6.68 -2.35 8.11 -.01 1.44&#xA;3.85 10.21 8.58 19.5 22.71 44.56 38.16 74.15 57.89 110.89 5.61 10.45 13.94&#xA;25.97 18.5 34.5 4.56 8.53 11.36 21.15 15.11 28.05 3.75 6.9 7.69 13.35 8.77&#xA;14.33 1.92 1.74 2.11 1.47 8.93 -12.55 3.83 -7.88 22.71 -46.05 41.94 -84.83&#xA;19.23 -38.78 39.39 -79.92 44.78 -91.44 l9.81 -20.94 -1.09 -5.2 c-.6 -2.86&#xA;-8.75 -24.49 -18.12 -48.06 -9.36 -23.57 -22.19 -55.91 -28.51 -71.86 -6.32&#xA;-15.95 -19.68 -49.25 -29.68 -74 -10.01 -24.75 -20.22 -50.06 -22.69 -56.25&#xA;-2.47 -6.19 -4.87 -11.25 -5.34 -11.25 -.47 0 -1.5 1.01 -2.28 2.25z M1868&#xA;631.59 c-4.67 .76 -12.33 2.09 -17 2.95 -4.67 .86 -16.15 3.16 -25.5 5.11&#xA;-9.35 1.95 -22.85 5.03 -30 6.86 -7.15 1.83 -20.67 5.36 -30.04 7.85 -9.37&#xA;2.49 -24.22 6.79 -33 9.55 -8.78 2.76 -20.46 6.58 -25.96 8.49 -5.5 1.91&#xA;-18.1 6.38 -28 9.94 -9.9 3.56 -25.2 9.4 -34 12.98 -8.8 3.58 -22.75 9.43 -31&#xA;13 -8.25 3.57 -26.13 11.93 -39.72 18.58 -13.6 6.65 -31.15 15.61 -39 19.92&#xA;-7.85 4.31 -25.08 14.29 -38.28 22.18 -13.2 7.89 -30.75 18.85 -39 24.34&#xA;-8.25 5.49 -24.45 16.73 -36 24.97 -11.55 8.24 -27.75 20.4 -36 27.02 -8.25&#xA;6.62 -19.59 16.02 -25.2 20.88 -5.61 4.86 -13.26 11.34 -17 14.4 -3.74 3.06&#xA;-15.48 13.7 -26.09 23.65 -10.61 9.95 -28.17 27.35 -39.02 38.66 -10.85 11.32&#xA;-23.55 24.63 -28.21 29.59 -4.66 4.96 -13.43 14.81 -19.48 21.88 -6.05 7.08&#xA;-13.25 15.7 -16 19.16 -2.75 3.46 -12.16 15.62 -20.92 27.02 -8.75 11.4 -19.2&#xA;25.42 -23.22 31.16 -4.02 5.74 -12.92 19.12 -19.77 29.73 -6.86 10.61 -15.79&#xA;24.86 -19.87 31.67 -4.07 6.81 -8.77 14.85 -10.44 17.87 -1.67 3.03 -8.12&#xA;14.45 -14.32 25.39 -6.21 10.94 -15.64 29.17 -20.97 40.5 -5.32 11.33 -11.29&#xA;24.43 -13.26 29.11 -1.97 4.68 -5.37 12.78 -7.55 18 -2.18 5.22 -7.16 17.66&#xA;-11.06 27.64 -3.9 9.98 -10.05 26.85 -13.66 37.5 -3.61 10.65 -9.02 27.46&#xA;-12.03 37.36 -3.01 9.9 -7.89 27.68 -10.85 39.5 -2.96 11.82 -6.97 29.38&#xA;-8.91 39 -1.94 9.62 -4.49 23.12 -5.66 30 -2.06 12.05 -6.08 36.26 -7.53&#xA;45.39 -.86 5.44 -1.98 15.57 -2.48 22.5 -.5 6.93 -1.63 17.73 -2.51 23.98&#xA;l-1.6 11.38 2.31 2.52 c1.27 1.39 6.81 4.65 12.31 7.26 5.5 2.61 25.45 12.22&#xA;44.33 21.35 18.88 9.14 34.97 16.62 35.75 16.62 1.16 0 1.42 -2.83 1.44&#xA;-15.75 .01 -8.66 .44 -19.8 .96 -24.75 .52 -4.95 1.42 -14.18 2 -20.5 .58&#xA;-6.32 1.75 -16.45 2.59 -22.5 .84 -6.05 2.87 -20.29 4.51 -31.65 1.64 -11.36&#xA;5.45 -32.96 8.48 -48 3.03 -15.04 7.53 -35.14 9.99 -44.66 2.47 -9.52 7.38&#xA;-26.62 10.92 -38 3.54 -11.38 9.1 -28.34 12.38 -37.69 3.27 -9.35 9.4 -25.77&#xA;13.61 -36.5 4.21 -10.72 12.85 -30.48 19.2 -43.91 6.35 -13.43 15.33 -31.56&#xA;19.97 -40.29 4.64 -8.73 11.5 -20.92 15.24 -27.09 3.75 -6.17 9.84 -16.12&#xA;13.53 -22.11 3.7 -5.99 12.4 -19.27 19.33 -29.5 6.94 -10.23 17.33 -25.13&#xA;23.09 -33.1 5.76 -7.97 15.45 -21.03 21.52 -29 6.07 -7.97 14.48 -18.32 18.67&#xA;-23 4.2 -4.68 10.13 -11.65 13.18 -15.5 3.05 -3.85 14.04 -15.88 24.42 -26.74&#xA;10.38 -10.86 27.87 -28.36 38.87 -38.89 11 -10.53 25.33 -23.7 31.85 -29.26&#xA;6.52 -5.56 17.32 -14.53 24 -19.93 6.68 -5.4 18 -14.2 25.15 -19.57 7.15&#xA;-5.36 20.47 -14.98 29.61 -21.37 9.13 -6.39 21.06 -14.51 26.5 -18.04 5.44&#xA;-3.53 16.11 -10.32 23.71 -15.08 7.6 -4.77 19.3 -11.74 26 -15.49 6.7 -3.75&#xA;19.88 -10.94 29.3 -15.97 9.42 -5.03 22.02 -11.44 28 -14.26 5.98 -2.81 19.2&#xA;-8.93 29.38 -13.59 10.17 -4.66 26.37 -11.64 35.98 -15.51 9.62 -3.87 23.34&#xA;-9.18 30.5 -11.79 7.16 -2.61 20.67 -7.26 30.02 -10.32 9.35 -3.06 22.4 -7.13&#xA;29 -9.05 6.6 -1.92 18.75 -5.3 27 -7.52 8.25 -2.21 23.78 -6.04 34.5 -8.5&#xA;10.72 -2.46 27.38 -6.08 37 -8.04 9.62 -1.97 24.22 -4.7 32.43 -6.08 8.21&#xA;-1.38 16.4 -2.51 18.19 -2.51 1.79 0 3.55 -.47 3.91 -1.04 .35 -.57 -.21&#xA;-2.71 -1.25 -4.75 -3.08 -6.04 -19.37 -35.78 -22.3 -40.71 -2.62 -4.4 -8.19&#xA;-14.86 -12.38 -23.25 l-7.61 -15.25 -4.24 .1 c-2.33 .06 -8.07 .72 -12.74&#xA;1.48z M2205.27 633.25 c-1.14 1.24 -6.24 10.12 -11.31 19.75 -5.08 9.62&#xA;-13.85 26.33 -19.49 37.12 -5.64 10.79 -10.56 20.58 -10.93 21.75 -.52 1.64&#xA;-.15 2.32 1.64 2.99 1.27 .48 8.84 1.88 16.82 3.13 7.97 1.25 25.09 4.43&#xA;38.04 7.08 12.94 2.65 30.94 6.44 39.98 8.44 9.04 1.99 22.98 5.42 30.96 7.61&#xA;7.99 2.19 22.05 6.23 31.26 8.98 9.21 2.75 27.88 8.76 41.5 13.36 13.62 4.6&#xA;35.56 12.73 48.76 18.05 13.2 5.32 32.32 13.5 42.5 18.18 10.18 4.67 25.47&#xA;12.22 34 16.77 8.53 4.55 21.89 11.69 29.69 15.87 7.8 4.18 19.73 10.92 26.5&#xA;14.97 6.77 4.05 17.26 10.41 23.31 14.13 6.05 3.72 19.55 12.63 30 19.8 10.45&#xA;7.17 28.45 20.18 40 28.92 11.55 8.74 25.5 19.52 31 23.97 5.5 4.45 13.38&#xA;11.1 17.5 14.78 4.12 3.68 11.09 9.59 15.48 13.15 4.39 3.55 23.12 21.53&#xA;41.62 39.96 18.5 18.43 37.62 38.22 42.49 44 4.87 5.78 12.26 14.32 16.43 19&#xA;4.17 4.68 10.46 12.1 14 16.5 3.53 4.4 10.71 13.37 15.95 19.92 5.24 6.56&#xA;15.61 20.04 23.03 29.95 7.43 9.91 14.25 18.47 15.16 19.02 1.31 .78 3.32&#xA;-.28 9.5 -5.02 4.31 -3.31 14.14 -10.45 21.84 -15.88 7.7 -5.43 20.07 -14.44&#xA;27.5 -20.02 7.43 -5.58 14.11 -10.89 14.85 -11.79 1.19 -1.43 -.21 -3.85&#xA;-11.23 -19.41 -6.92 -9.78 -21.77 -29.25 -33 -43.27 -11.23 -14.03 -23.51&#xA;-29.14 -27.27 -33.58 -3.77 -4.45 -12.02 -13.9 -18.34 -21 -6.32 -7.1 -20.04&#xA;-21.63 -30.5 -32.28 -10.46 -10.65 -28.24 -27.95 -39.51 -38.44 -11.28 -10.49&#xA;-23.86 -21.81 -27.96 -25.14 -4.1 -3.33 -10.85 -9.01 -15 -12.6 -4.15 -3.6&#xA;-10.86 -9.22 -14.9 -12.5 -4.05 -3.28 -12.15 -9.69 -18 -14.26 -5.85 -4.57&#xA;-17.39 -13.14 -25.64 -19.05 -8.25 -5.92 -19.95 -14.16 -26 -18.32 -6.05&#xA;-4.16 -18.58 -12.38 -27.83 -18.26 -9.26 -5.88 -21.18 -13.29 -26.5 -16.46&#xA;-5.32 -3.17 -19.57 -11.41 -31.67 -18.31 -12.1 -6.9 -31.45 -17.27 -43 -23.05&#xA;-11.55 -5.78 -28.19 -13.88 -36.99 -18.01 -8.8 -4.13 -23.77 -10.74 -33.28&#xA;-14.68 -9.5 -3.95 -26.83 -10.79 -38.5 -15.2 -11.67 -4.41 -29.77 -10.88&#xA;-40.22 -14.37 -10.45 -3.49 -26.65 -8.6 -36 -11.36 -9.35 -2.76 -22.22 -6.4&#xA;-28.6 -8.09 -6.38 -1.69 -19.8 -4.85 -29.81 -7.02 -10.01 -2.17 -24.59 -5.08&#xA;-32.4 -6.45 -7.8 -1.38 -19.8 -3.19 -26.66 -4.04 -6.86 -.84 -13.87 -1.53&#xA;-15.58 -1.53 -1.94 0 -3.89 .85 -5.19 2.25z M3371 980.02 c-2.47 .44 -10.57&#xA;1.76 -18 2.94 -7.43 1.18 -20.7 3.72 -29.5 5.65 -8.8 1.93 -23.2 5.31 -32&#xA;7.52 -8.8 2.21 -21.4 5.58 -28 7.51 -12.26 3.57 -28.58 8.46 -46.08 13.79&#xA;-9.95 3.03 -24.12 7.72 -31.5 10.43 -7.38 2.7 -18.59 6.95 -24.92 9.44 -6.32&#xA;2.49 -16.9 6.63 -23.5 9.19 -6.6 2.56 -23.7 10.34 -38 17.28 -14.3 6.94&#xA;-31.62 15.53 -38.5 19.1 -6.88 3.56 -23.3 12.97 -36.5 20.9 -13.2 7.93 -29.85&#xA;18.51 -37 23.51 -7.15 5 -17.72 12.7 -23.5 17.12 -5.78 4.42 -14.1 10.95&#xA;-18.5 14.52 -4.4 3.57 -11.38 9.43 -15.5 13.02 -4.12 3.6 -12.62 11.49 -18.89&#xA;17.55 -6.26 6.05 -19.27 19.33 -28.9 29.51 -9.63 10.18 -22.3 24.35 -28.15&#xA;31.5 -5.85 7.15 -14.03 17.5 -18.17 23 -4.14 5.5 -9.79 13.38 -12.55 17.5&#xA;-2.76 4.12 -9.88 15.6 -15.83 25.5 -5.95 9.9 -13.65 23.4 -17.11 30 -3.46 6.6&#xA;-9.73 19.65 -13.94 29 -4.21 9.35 -8.45 19.03 -9.43 21.5 -.98 2.47 -4.04&#xA;10.12 -6.8 17 -2.76 6.88 -8.17 22.4 -12.03 34.5 -3.86 12.1 -9.04 29.43&#xA;-11.51 38.5 -2.47 9.07 -6.83 25.5 -9.7 36.5 -2.87 11 -5.95 22.36 -6.86&#xA;25.24 -.9 2.88 -1.93 5.24 -2.28 5.25 -.35 .01 -.97 -9.31 -1.38 -20.7 -.41&#xA;-11.39 -.43 -29.28 -.05 -39.75 .38 -10.47 1.57 -27.81 2.64 -38.54 1.07&#xA;-10.72 2.86 -26.47 3.97 -35 1.11 -8.53 2.72 -19.27 3.57 -23.87 .91 -4.88&#xA;1.18 -8.74 .66 -9.26 -.52 -.52 -1.95 .26 -3.43 1.87 -1.4 1.52 -10.17 13.56&#xA;-19.49 26.76 -18.81 26.62 -30.24 43.04 -41.05 58.96 -6.33 9.33 -17.48 26.65&#xA;-24.78 38.5 -7.29 11.85 -17.89 29.64 -23.56 39.54 -5.67 9.9 -18.91 35.1&#xA;-29.43 56 -12.13 24.1 -22.45 46.23 -28.22 60.5 -5 12.38 -11.46 28.8 -14.35&#xA;36.5 -2.89 7.7 -7.9 22.32 -11.14 32.5 -3.24 10.18 -7.85 26.15 -10.26 35.5&#xA;-2.4 9.35 -6.4 26 -8.88 37 -2.48 11 -5.43 24.95 -6.54 31 -1.89 10.23 -8.16&#xA;46.9 -9.15 53.5 -.62 4.12 -1.77 11.55 -2.56 16.5 -.79 4.95 -1.89 13.05&#xA;-2.44 18 -.55 4.95 -1.39 11.25 -1.87 14 -1.59 9.15 -3.69 18.5 -4.16 18.5&#xA;-.38 0 -.97 -2.77 -1.33 -6.15 -.35 -3.38 -.64 -20.74 -.64 -38.58 0 -23.08&#xA;.57 -39.84 1.99 -58.1 1.09 -14.12 2.21 -26.91 2.47 -28.42 .29 -1.65 .12&#xA;-2.75 -.42 -2.75 -.5 0 -1.85 1.33 -3.01 2.95 -1.16 1.62 -3.27 5.56 -4.71&#xA;8.75 -1.43 3.19 -6.4 14.8 -11.03 25.8 -4.63 11 -11.39 27.43 -15.01 36.5&#xA;-3.62 9.07 -10.11 26.75 -14.43 39.29 -4.31 12.53 -11.72 34.81 -16.45 49.5&#xA;-4.74 14.69 -11.89 38.19 -15.91 52.22 -4.01 14.03 -10.01 36.31 -13.33 49.5&#xA;-3.32 13.19 -8.06 32.76 -10.53 43.49 -2.47 10.72 -5.2 23.1 -6.07 27.5 -.87&#xA;4.4 -2.95 14.97 -4.64 23.5 -1.68 8.53 -3.93 20.45 -4.98 26.5 -1.06 6.05&#xA;-3.24 19.32 -4.86 29.5 -1.62 10.18 -3.91 26.38 -5.1 36 -1.19 9.62 -2.86&#xA;20.43 -3.7 24 -.84 3.57 -1.76 11.09 -2.04 16.69 -.28 5.61 -.21 10.96 .15&#xA;11.9 .59 1.53 .91 1.47 3.15 -.64 1.37 -1.29 5.57 -7.77 9.32 -14.4 3.76&#xA;-6.63 8.76 -15.66 11.12 -20.06 2.36 -4.4 8.44 -15.65 13.52 -25 5.08 -9.35&#xA;15.89 -29.6 24.03 -45 8.14 -15.4 19.83 -37 25.98 -48 6.15 -11 16.04 -29&#xA;21.98 -40 7.68 -14.23 38.91 -70.79 47.48 -86 3.72 -6.6 8.92 -16.05 11.56&#xA;-21 2.64 -4.95 5.63 -10.21 6.65 -11.68 1.01 -1.47 5.35 -8.9 9.64 -16.5 4.96&#xA;-8.8 28.12 -48.26 35.4 -60.32 2.49 -4.12 12.97 -21.68 23.3 -39 10.32 -17.32&#xA;21.78 -36.22 25.46 -42 3.68 -5.78 16.5 -26.03 28.5 -45 12 -18.97 27.48&#xA;-43.16 34.41 -53.74 6.93 -10.58 23.85 -36.23 37.61 -57 13.75 -20.77 27.13&#xA;-40.68 29.72 -44.26 2.6 -3.57 12.23 -16.85 21.42 -29.5 9.18 -12.65 19.53&#xA;-27.05 22.99 -32 3.46 -4.95 11.82 -16.26 18.58 -25.13 6.76 -8.87 16.76&#xA;-21.92 22.23 -29 5.83 -7.55 29.7 -37.01 38.83 -47.93 3.36 -4.01 12.16&#xA;-14.95 21.73 -27 4.12 -5.19 11.07 -12.7 15.43 -16.69 7.77 -7.1 7.87 -7.16&#xA;5.03 -2.75 -1.59 2.47 -6.71 9.67 -11.38 16 -4.67 6.32 -14.43 20.72 -21.69&#xA;32 -7.27 11.28 -20.26 31.3 -28.87 44.5 -8.62 13.2 -20.2 30.97 -25.74 39.5&#xA;-5.54 8.53 -14.12 22.03 -19.07 30 -6.36 10.27 -28.53 45.1 -40.73 64 -4.79&#xA;7.43 -13.27 20.81 -18.85 29.75 -5.57 8.94 -14.7 23.56 -20.28 32.5 -5.58&#xA;8.94 -15.51 25.17 -22.05 36.07 -6.54 10.9 -13.98 23.05 -16.51 27 -2.54 3.95&#xA;-8.08 13.26 -12.31 20.68 -4.23 7.43 -11.47 19.8 -16.08 27.51 -4.61 7.7&#xA;-10.86 18.64 -13.89 24.29 -3.03 5.65 -11.53 20.73 -18.91 33.49 -7.37 12.77&#xA;-17.32 30.18 -22.1 38.71 -4.78 8.53 -13.19 23.38 -18.68 33 -5.49 9.62&#xA;-12.14 21.55 -14.79 26.5 -2.64 4.95 -8.27 15.3 -12.51 23 -4.24 7.7 -12.56&#xA;23 -18.49 34 -5.93 11 -14.04 25.85 -18.02 33 -3.98 7.15 -10.29 18.62 -14.02&#xA;25.5 -3.73 6.88 -11.59 21.05 -17.47 31.5 -5.88 10.45 -16.01 28.9 -22.51 41&#xA;-6.5 12.1 -20.23 37.3 -30.5 56 -10.27 18.7 -20.61 37.6 -22.99 42 -7.93&#xA;14.69 -51.81 91.67 -53.55 93.95 -1.31 1.71 -1.67 1.77 -2.94 .5 -.8 -.8 -2.6&#xA;-5.42 -4.01 -10.28 -1.41 -4.85 -3.2 -10.36 -3.99 -12.25 -.79 -1.89 -1.88&#xA;-3.43 -2.42 -3.43 -.54 0 -3.41 3.71 -6.37 8.25 -2.96 4.54 -6.97 10.95 -8.92&#xA;14.25 -1.94 3.3 -6.58 11.62 -10.29 18.5 -3.72 6.88 -9.8 17.9 -13.51 24.5&#xA;-12 21.31 -31.12 54.46 -36.06 62.5 -4.22 6.88 -12 19.54 -17.28 28.15 -5.28&#xA;8.61 -12.01 19.41 -14.95 24 -2.94 4.59 -8.45 13.52 -12.24 19.85 -3.79 6.32&#xA;-13.61 21.85 -21.82 34.5 -8.22 12.65 -18.42 28.62 -22.66 35.5 -4.25 6.88&#xA;-14.95 23.75 -23.79 37.5 -8.83 13.75 -21.83 33.99 -28.89 44.98 -7.05 10.99&#xA;-16.1 25.34 -20.1 31.89 -4 6.55 -7.07 12.12 -6.82 12.37 .25 .25 3.7 -2.18&#xA;7.67 -5.39 3.97 -3.22 8.61 -6.96 10.32 -8.33 1.71 -1.36 8.5 -7.18 15.1&#xA;-12.92 6.6 -5.75 17.18 -15.18 23.5 -20.96 6.32 -5.78 19.07 -17.97 28.33&#xA;-27.08 9.25 -9.11 21.17 -21.51 26.48 -27.56 5.31 -6.05 14.77 -16.39 21.04&#xA;-22.98 6.26 -6.59 16.17 -17.8 22.02 -24.92 5.85 -7.12 13.6 -16.62 17.23&#xA;-21.1 3.62 -4.49 10.64 -13.52 15.58 -20.08 4.95 -6.56 13.49 -18.22 18.99&#xA;-25.92 5.5 -7.7 14.05 -20.07 19.01 -27.5 4.96 -7.43 12.47 -19.24 16.7&#xA;-26.25 4.22 -7.01 9.97 -16.69 12.76 -21.5 2.8 -4.81 8.9 -15.72 13.56 -24.25&#xA;4.66 -8.53 9.59 -16.96 10.94 -18.75 1.36 -1.79 3.68 -3.87 5.16 -4.64 1.48&#xA;-.76 8.77 -3.66 16.2 -6.44 7.43 -2.78 24.53 -10.28 38 -16.67 13.47 -6.39&#xA;27.88 -13.46 32 -15.71 4.12 -2.25 16.72 -9.51 28 -16.12 11.28 -6.62 30.4&#xA;-18.66 42.5 -26.76 12.44 -8.33 31.62 -22.48 44.15 -32.57 12.18 -9.82 28.38&#xA;-23.2 36 -29.74 7.62 -6.54 21.89 -20.04 31.7 -30 9.82 -9.96 20.37 -21.26&#xA;23.44 -25.11 3.08 -3.85 8.71 -10.36 12.51 -14.47 3.81 -4.11 8.99 -10.18&#xA;11.51 -13.5 2.53 -3.32 7.31 -9.24 10.64 -13.16 3.33 -3.92 9.42 -11.54 13.55&#xA;-16.94 4.12 -5.4 9.31 -12.09 11.53 -14.87 2.21 -2.78 6.23 -8.21 8.92 -12.06&#xA;2.69 -3.85 7.78 -11.05 11.3 -16 3.52 -4.95 11.77 -17.01 18.33 -26.81 6.56&#xA;-9.79 11.92 -18.48 11.92 -19.3 0 -1.17 -.79 -1.34 -3.75 -.81 -2.06 .37&#xA;-7.35 1.98 -11.75 3.57 -4.4 1.59 -17 5.61 -28 8.93 -11 3.32 -31.47 8.74&#xA;-45.5 12.04 -14.03 3.3 -34.5 7.79 -45.5 9.96 -11 2.17 -25.85 4.63 -33 5.46&#xA;-7.15 .83 -14.31 1.95 -15.91 2.48 -1.6 .54 -3.18 .72 -3.5 .39 -.32 -.32 .31&#xA;-1.25 1.41 -2.05 1.1 -.81 7.4 -4.1 14 -7.32 6.6 -3.22 18.07 -8.66 25.5&#xA;-12.1 7.43 -3.43 26.78 -12.9 43 -21.04 16.22 -8.14 38.08 -19.72 48.56&#xA;-25.73 10.48 -6.01 28.83 -17.27 40.78 -25.01 11.95 -7.74 25.87 -17.2 30.94&#xA;-21.03 5.07 -3.82 14.17 -11.07 20.22 -16.11 6.05 -5.04 19.19 -16.84 29.21&#xA;-26.22 10.01 -9.38 22.85 -22.06 28.53 -28.18 5.68 -6.12 13.91 -15.21 18.29&#xA;-20.19 4.38 -4.98 11.84 -13.76 16.56 -19.5 4.73 -5.74 15.08 -19.26 23&#xA;-30.04 7.92 -10.78 18.13 -24.95 22.69 -31.5 4.56 -6.55 12.67 -18.92 18.03&#xA;-27.5 5.36 -8.58 12.14 -20.05 15.06 -25.5 2.93 -5.45 9.38 -17.55 14.34&#xA;-26.9 4.96 -9.35 10.75 -20.24 12.87 -24.21 2.12 -3.96 3.46 -7.45 2.98 -7.74&#xA;-.48 -.3 -3.73 .53 -7.22 1.84 -3.49 1.31 -13.78 4.85 -22.85 7.88 -9.07 3.03&#xA;-21.22 6.96 -27 8.74 -5.78 1.78 -15.9 4.77 -22.5 6.64 -6.6 1.87 -25.5 6.75&#xA;-42 10.84 -16.5 4.09 -39.22 9.22 -50.5 11.41 -11.28 2.19 -25 4.83 -30.5&#xA;5.88 -5.5 1.05 -10.41 1.68 -10.92 1.4 -.5 -.28 .37 -1.53 1.94 -2.78 1.57&#xA;-1.25 8.51 -4.61 15.42 -7.45 6.91 -2.85 27.86 -11.7 46.56 -19.68 18.7 -7.98&#xA;43 -18.78 54 -24.01 11 -5.23 25.85 -12.43 33 -16.01 7.15 -3.58 16.6 -8.56&#xA;21 -11.07 4.4 -2.51 12.72 -7.71 18.5 -11.56 5.78 -3.85 13.88 -9.48 18&#xA;-12.52 4.12 -3.04 13.8 -10.78 21.5 -17.21 7.7 -6.43 19.48 -17.25 26.19&#xA;-24.04 6.7 -6.8 15.35 -16.18 19.21 -20.86 3.86 -4.68 10.96 -13.68 15.77 -20&#xA;4.81 -6.32 14.8 -20.72 22.2 -32 7.4 -11.28 17.72 -27.47 22.93 -36 5.21&#xA;-8.53 13.68 -23.03 18.83 -32.24 5.15 -9.21 13.19 -24.4 17.88 -33.75 4.68&#xA;-9.36 11.72 -23.87 15.63 -32.26 3.91 -8.39 8.63 -19.07 10.49 -23.74 1.86&#xA;-4.67 3.38 -8.77 3.38 -9.1 0 -.33 -4.18 1.55 -9.29 4.19 -5.11 2.64 -15.12&#xA;7.33 -22.25 10.43 -7.13 3.1 -19.48 8.59 -27.46 12.2 -7.97 3.61 -23.5 9.92&#xA;-34.5 14.03 -11 4.11 -24.5 8.95 -30 10.77 -5.5 1.82 -17.2 5.57 -26 8.35&#xA;-8.8 2.77 -24.55 7.27 -35 10 -10.45 2.72 -24.4 6.13 -31 7.56 -6.6 1.43&#xA;-14.45 3.26 -17.45 4.05 -3 .8 -5.7 1.18 -6 .85 -.3 -.33 -.07 -.77 .51 -.98&#xA;.58 -.21 6.66 -3.57 13.5 -7.46 6.84 -3.89 21.22 -11.48 31.94 -16.87 10.72&#xA;-5.38 21.11 -10.46 23.09 -11.28 1.97 -.82 14.12 -7.14 27 -14.04 12.88 -6.9&#xA;27.92 -15.17 33.43 -18.37 5.51 -3.2 16.24 -9.65 23.85 -14.32 7.61 -4.68&#xA;18.69 -11.94 24.62 -16.15 5.93 -4.21 15.43 -11.41 21.11 -16 5.68 -4.59&#xA;13.21 -11.05 16.74 -14.35 3.53 -3.3 11.64 -11.65 18.04 -18.56 6.39 -6.91&#xA;15.05 -16.58 19.23 -21.5 4.18 -4.92 11.21 -13.96 15.62 -20.1 4.41 -6.14&#xA;12.36 -18.15 17.68 -26.71 5.32 -8.55 12.82 -21.31 16.68 -28.34 3.86 -7.04&#xA;10.55 -19.99 14.87 -28.79 4.32 -8.8 11.32 -24.32 15.57 -34.5 4.24 -10.18&#xA;9.05 -21.88 10.67 -26 4.93 -12.5 19.59 -50.97 22.29 -58.5 3.63 -10.11 26.92&#xA;-72.67 30.66 -82.35 2.2 -5.69 3.76 -10.98 3.46 -11.75 -.36 -.93 -1.99 -1.36&#xA;-4.82 -1.29 -2.35 .06 -6.31 .47 -8.78 .91z M971.5 1635.73 c-4.4 1.96 -15.08&#xA;6.88 -23.74 10.95 -8.66 4.07 -17.43 8.01 -19.5 8.75 -2.07 .74 -12.53 5.49&#xA;-23.26 10.55 -10.73 5.06 -28.05 12.92 -38.5 17.48 -10.45 4.55 -25.3 11.08&#xA;-33 14.51 -7.7 3.43 -25.02 11.09 -38.5 17.03 -13.48 5.94 -32.04 14.44&#xA;-41.25 18.89 -9.21 4.45 -16.75 8.49 -16.75 8.98 0 .49 1.01 1.54 2.25 2.31&#xA;1.24 .78 9 4.28 17.25 7.77 8.25 3.5 20.85 9.03 28 12.3 10.95 5 50.82 22.88&#xA;64 28.69 7.15 3.15 18.62 8.26 25.5 11.35 6.88 3.09 21.05 9.29 31.5 13.78&#xA;10.45 4.49 25.75 11.08 34 14.65 8.25 3.57 18.6 7.75 23 9.3 4.4 1.55 10.39&#xA;3.76 13.32 4.91 4.52 1.78 5.94 1.93 9.5 1.01 2.3 -.59 11.38 -4.61 20.18&#xA;-8.92 10.14 -4.96 94.41 -46.09 121 -59.05 9.35 -4.56 30.53 -14.41 47.06&#xA;-21.89 16.53 -7.48 31.16 -14.37 32.5 -15.32 l2.44 -1.71 -2.5 -1.99 c-1.38&#xA;-1.1 -7.9 -4.33 -14.5 -7.19 -6.6 -2.86 -24.6 -11.39 -40 -18.96 -15.4 -7.57&#xA;-30.92 -14.98 -34.48 -16.46 -3.56 -1.48 -13.91 -6.41 -23 -10.95 -9.09 -4.54&#xA;-32.05 -15.72 -51.02 -24.84 -18.97 -9.12 -40.23 -19.53 -47.24 -23.14 -7&#xA;-3.6 -13.53 -6.51 -14.5 -6.46 -.97 .05 -5.36 1.69 -9.76 3.65z M3132.18&#xA;1638.32 c-1.12 1.2 -13.7 25.13 -27.95 53.18 -14.25 28.05 -28.74 55.95&#xA;-32.21 62 -3.47 6.05 -8.58 14.82 -11.37 19.5 -2.79 4.68 -9.47 15.17 -14.86&#xA;23.32 -5.39 8.15 -9.79 15.25 -9.79 15.77 0 .52 1.24 1.46 2.75 2.09 1.51 .62&#xA;8.15 3.6 14.75 6.6 6.6 3.01 13.69 6.06 15.75 6.8 2.06 .73 12.59 5.66 23.41&#xA;10.96 17.33 8.49 20.09 9.55 23.25 8.97 1.98 -.36 9.89 -3.38 17.59 -6.71 7.7&#xA;-3.33 20.3 -8.51 28 -11.52 7.7 -3 26.15 -10.56 41 -16.78 14.85 -6.23 39.82&#xA;-16.73 55.5 -23.33 15.68 -6.61 42.68 -18.17 60 -25.69 17.32 -7.52 34.43&#xA;-14.71 38 -15.97 3.57 -1.26 7.29 -2.62 8.25 -3.01 .96 -.39 1.75 -1.27 1.75&#xA;-1.95 0 -.68 -4.39 -3.3 -9.75 -5.81 -5.36 -2.51 -16.5 -7.36 -24.75 -10.77&#xA;-8.25 -3.41 -23.78 -10.47 -34.5 -15.68 -10.72 -5.21 -22.88 -10.94 -27&#xA;-12.74 -5.24 -2.28 -34.81 -15.73 -60.5 -27.52 -9.35 -4.29 -27.34 -12.39&#xA;-39.98 -18.01 -12.64 -5.61 -24.69 -11.08 -26.78 -12.14 -2.09 -1.07 -4.86&#xA;-2.34 -6.16 -2.83 -1.86 -.71 -2.78 -.44 -4.39 1.29z M1058.5 1872.4 c-14.85&#xA;6.81 -34.64 16.01 -43.97 20.44 -9.34 4.43 -17.51 8.79 -18.17 9.69 -.68 .93&#xA;-.98 3.23 -.69 5.3 .28 2.02 2.51 13.34 4.97 25.16 2.46 11.82 5.98 27.8 7.84&#xA;35.5 1.85 7.7 5.42 21.01 7.92 29.58 2.51 8.57 8.36 26.57 13.01 40 4.65&#xA;13.43 10.24 29.39 12.44 35.46 2.19 6.07 6.46 17.1 9.49 24.5 3.02 7.4 8.47&#xA;20.14 12.1 28.29 3.63 8.16 10.85 23.46 16.04 34 5.19 10.54 12.62 24.98&#xA;16.52 32.08 3.9 7.1 10.3 18.35 14.23 25 3.93 6.65 11.96 19.74 17.84 29.09&#xA;5.88 9.35 15.12 23.53 20.52 31.5 5.41 7.97 14.31 20.57 19.78 28 5.47 7.43&#xA;13.13 17.55 17.02 22.5 3.89 4.95 10.46 13.05 14.6 18 28.64 34.24 39.93&#xA;46.54 73.46 80.05 20.39 20.38 44.05 43.15 52.57 50.6 8.53 7.45 20.66 17.78&#xA;26.98 22.95 6.31 5.17 14.19 11.55 17.5 14.17 3.31 2.63 14.57 11.2 25.02&#xA;19.04 10.45 7.85 21.25 15.81 24 17.69 2.75 1.88 11.28 7.38 18.96 12.21 7.68&#xA;4.83 14.47 8.78 15.09 8.78 .76 0 1.34 -4.81 1.77 -14.75 .35 -8.11 1.08&#xA;-17.45 1.62 -20.75 .54 -3.3 1.77 -14.55 2.74 -25 .97 -10.45 1.77 -21.93&#xA;1.79 -25.5 .02 -5.2 -.43 -7.14 -2.27 -9.72 -1.26 -1.77 -11.48 -10.68 -22.72&#xA;-19.8 -11.23 -9.12 -24.83 -20.46 -30.21 -25.19 -5.38 -4.73 -25.76 -24.62&#xA;-45.29 -44.2 -19.53 -19.58 -38.87 -39.64 -42.98 -44.59 -4.12 -4.95 -10.9&#xA;-12.82 -15.07 -17.5 -4.36 -4.88 -28.08 -34 -34.62 -42.5 -1.69 -2.2 -11.23&#xA;-15.62 -21.19 -29.82 -9.96 -14.2 -21.7 -31.6 -26.09 -38.66 -4.39 -7.06&#xA;-11.43 -18.84 -15.66 -26.18 -4.22 -7.34 -13.53 -24.55 -20.68 -38.26 -7.15&#xA;-13.71 -16.24 -31.93 -20.21 -40.5 -3.97 -8.57 -10.65 -24.16 -14.84 -34.65&#xA;-4.2 -10.5 -10.83 -28.05 -14.74 -39 -3.91 -10.95 -9.94 -29.37 -13.4 -40.92&#xA;-3.46 -11.55 -8.8 -30.9 -11.86 -43 -3.06 -12.1 -7.13 -28.97 -9.03 -37.5&#xA;-1.91 -8.53 -4.87 -23.15 -6.58 -32.5 -1.71 -9.35 -3.54 -18.01 -4.06 -19.25&#xA;-.52 -1.24 -1.74 -2.24 -2.71 -2.24 -.97 .01 -13.92 5.58 -28.77 12.39z&#xA;M3008.98 1863.57 c-.54 1.41 -.98 3.6 -.98 4.86 0 1.26 -.93 6.97 -2.06 12.68&#xA;-1.13 5.71 -3.2 15.56 -4.58 21.89 -1.39 6.32 -3.6 16.07 -4.92 21.65 -1.32&#xA;5.58 -4.9 19.53 -7.96 31 -3.06 11.47 -9.65 33.22 -14.65 48.35 -5 15.12&#xA;-11.1 32.68 -13.56 39 -2.46 6.32 -6.42 16.49 -8.81 22.58 -2.39 6.09 -7.55&#xA;18.24 -11.48 27 -3.92 8.76 -10.95 23.79 -15.62 33.42 -4.67 9.62 -10.43&#xA;20.88 -12.8 25 -2.37 4.12 -8.14 14.47 -12.82 23 -4.68 8.53 -11.62 20.57&#xA;-15.42 26.77 -3.8 6.2 -12.51 19.47 -19.36 29.49 -6.85 10.02 -21.81 30.6&#xA;-33.23 45.73 -11.42 15.13 -24.4 31.78 -28.84 37.01 -4.44 5.22 -10.62 12.48&#xA;-13.73 16.12 -3.11 3.64 -10.59 12.19 -16.61 19 -6.02 6.81 -21.32 22.88 -34&#xA;35.71 -12.68 12.83 -31.85 31.06 -42.62 40.5 -10.76 9.44 -24.26 21 -30 25.69&#xA;-5.74 4.69 -15.19 12.23 -21 16.74 -5.81 4.52 -11.6 9.31 -12.87 10.66 l-2.3&#xA;2.45 1.59 15.81 c2.26 22.44 5.73 60.82 5.9 65.31 .24 6.28 .33 6.49 2.79&#xA;6.34 1.4 -.09 7.61 -3.11 13.82 -6.71 6.2 -3.6 17.88 -11.16 25.96 -16.79&#xA;8.08 -5.63 19.41 -13.61 25.18 -17.73 5.78 -4.12 14.55 -10.64 19.5 -14.49&#xA;4.95 -3.85 15.3 -12.04 23 -18.21 7.7 -6.17 18.05 -14.68 23 -18.92 4.95&#xA;-4.24 15.71 -13.84 23.9 -21.35 8.2 -7.51 28.23 -27.38 44.51 -44.16 16.28&#xA;-16.78 36.35 -38.38 44.6 -48 8.25 -9.62 17.11 -20.18 19.7 -23.48 2.58 -3.3&#xA;7.38 -9.32 10.67 -13.38 3.29 -4.06 11.34 -14.86 17.89 -24 6.55 -9.14 17.76&#xA;-25.62 24.9 -36.62 7.15 -11 18.63 -29.45 25.53 -41 6.9 -11.55 16.73 -28.88&#xA;21.85 -38.5 5.12 -9.62 11.97 -23.12 15.23 -30 3.25 -6.88 9.51 -20.82 13.91&#xA;-31 4.4 -10.18 10.25 -24.12 13 -31 2.75 -6.88 7.48 -19.25 10.52 -27.5 3.04&#xA;-8.25 7.73 -21.53 10.44 -29.5 2.7 -7.97 8.24 -25.53 12.3 -39 4.06 -13.47&#xA;8.36 -28.1 9.56 -32.5 1.2 -4.4 3.91 -14.75 6.03 -23 2.12 -8.25 5.23 -19.44&#xA;6.91 -24.87 1.68 -5.43 3.05 -10.49 3.05 -11.24 0 -.75 -4.39 -3.44 -9.75&#xA;-5.98 -18.56 -8.77 -54.49 -25.41 -54.86 -25.41 -.34 0 -6.85 -2.7 -14.47 -6&#xA;-7.62 -3.3 -14.1 -6 -14.41 -6 -.31 0 -1 1.15 -1.53 2.57z M2034.74 2732.76&#xA;c-7.56 7.57 -13.74 14.41 -13.74 15.19 0 .78 -.92 2.4 -2.05 3.6 -1.12 1.2&#xA;-4.16 5.58 -6.75 9.74 -2.59 4.16 -10.1 16.38 -16.7 27.16 -6.6 10.77 -14.7&#xA;23.73 -18 28.8 -5.92 9.08 -6.08 9.24 -12 11.05 -4.52 1.38 -7.6 1.68 -12.5&#xA;1.19 -3.58 -.35 -10.55 -1.51 -15.5 -2.57 -4.95 -1.06 -23.85 -5.78 -42&#xA;-10.48 -18.15 -4.7 -37.24 -9.91 -42.42 -11.57 l-9.42 -3.03 -12.34 12.34&#xA;-12.34 12.34 1.56 5.99 c.86 3.29 2.21 6.98 3.01 8.2 .8 1.22 1.45 2.95 1.45&#xA;3.85 0 .9 4.48 15.43 9.96 32.29 5.48 16.86 11.11 34.65 12.51 39.54 1.4 4.89&#xA;2.82 11.26 3.16 14.15 .46 3.92 .07 7.08 -1.53 12.35 -2.12 6.98 -2.26 7.15&#xA;-9.38 11.91 -3.97 2.66 -13.3 8.45 -20.73 12.88 -7.42 4.43 -18.9 11.19 -25.5&#xA;15.04 -6.6 3.84 -15.15 8.67 -19 10.71 -5.37 2.86 -10.32 7.03 -21.25 17.88&#xA;l-14.25 14.16 12.75 12.83 c8.77 8.83 14.93 14.1 19.75 16.9 3.85 2.24 8.35&#xA;4.79 10 5.65 1.65 .87 6.6 3.67 11 6.23 13.52 7.86 35.61 20.75 40.49 23.63&#xA;4.12 2.43 9.39 5.85 11.7 7.6 2.62 1.98 4.98 4.95 6.26 7.86 1.13 2.58 2.05&#xA;6.55 2.05 8.82 0 2.27 -1.16 8.71 -2.58 14.31 -1.42 5.6 -3.88 14.68 -5.48&#xA;20.18 -1.59 5.5 -5.55 17.65 -8.79 27 -3.24 9.35 -6.47 19.47 -7.17 22.5 -.71&#xA;3.03 -1.87 6.4 -2.57 7.5 -.71 1.1 -2.44 5.6 -3.84 10 -1.4 4.4 -2.55 8.91&#xA;-2.56 10.02 -.01 1.26 4.68 6.69 12.45 14.45 l12.46 12.43 5.29 -1.31 c2.91&#xA;-.72 7.26 -2.16 9.66 -3.2 2.41 -1.04 5.27 -1.89 6.36 -1.89 1.09 0 5.87&#xA;-1.16 10.62 -2.59 4.75 -1.42 15.62 -4.77 24.14 -7.43 8.53 -2.66 22.25 -6.87&#xA;30.5 -9.34 8.25 -2.47 17.7 -5.01 21 -5.64 3.3 -.63 8.46 -1 11.47 -.82 5.19&#xA;.3 5.61 .54 8.31 4.57 1.57 2.34 8.51 13.59 15.44 25 6.93 11.41 15.95 26.6&#xA;20.06 33.75 4.11 7.15 8.38 14.35 9.49 16 1.11 1.65 7.91 8.96 15.11 16.25&#xA;7.2 7.29 13.55 13.25 14.12 13.25 .57 0 6.7 -5.74 13.63 -12.75 11.42 -11.56&#xA;13.35 -14.06 20.63 -26.75 4.42 -7.7 14.57 -24.35 22.56 -37 7.99 -12.65&#xA;16.17 -25.36 18.17 -28.25 3.61 -5.22 3.67 -5.25 8.94 -5.25 2.92 0 9.09 .66&#xA;13.72 1.47 4.63 .81 10.42 2.18 12.88 3.05 2.46 .87 15.72 5.12 29.47 9.44&#xA;13.75 4.32 28.2 8.8 32.11 9.95 3.91 1.15 7.93 2.09 8.93 2.09 1 0 3.66 .88&#xA;5.89 1.96 2.24 1.08 6.76 2.65 10.05 3.51 l5.99 1.55 12.46 -12.46 c11.53&#xA;-11.53 12.37 -12.63 11.33 -14.76 -.62 -1.26 -1.88 -4.71 -2.81 -7.66 -.93&#xA;-2.95 -2.31 -6.55 -3.07 -8 -.76 -1.45 -1.38 -3.63 -1.38 -4.85 -0 -1.21&#xA;-4.27 -14.4 -9.48 -29.31 -5.21 -14.91 -10.87 -32.68 -12.57 -39.5 -1.71&#xA;-6.82 -3.14 -15.23 -3.19 -18.69 -.05 -3.46 .47 -8.61 1.15 -11.46 .68 -2.84&#xA;2 -5.82 2.91 -6.61 .92 -.79 13.6 -8.85 28.17 -17.89 14.57 -9.05 31.9 -19.45&#xA;38.5 -23.12 10.85 -6.03 13.24 -7.91 24.86 -19.56 10.2 -10.23 12.73 -13.3&#xA;12.23 -14.87 -.34 -1.09 -6.58 -7.8 -13.86 -14.92 -10.44 -10.21 -14.82&#xA;-13.76 -20.73 -16.81 -4.12 -2.12 -16.72 -9.49 -28 -16.37 -11.28 -6.88 -24.6&#xA;-15.14 -29.6 -18.36 -7.46 -4.79 -9.44 -6.61 -11 -10.07 -1.5 -3.34 -1.89&#xA;-6.52 -1.87 -15.24 l.03 -11.02 12.35 -36.5 c6.79 -20.07 13.86 -40.38 15.72&#xA;-45.12 1.85 -4.74 3.37 -9.7 3.37 -11.02 0 -1.73 -3.41 -5.8 -12.28 -14.64&#xA;l-12.28 -12.25 -5.47 1.6 c-3.01 .88 -7 2.48 -8.87 3.56 -1.87 1.08 -3.97&#xA;1.75 -4.67 1.48 -.7 -.27 -5.92 .8 -11.61 2.37 -5.68 1.57 -18.43 4.94 -28.33&#xA;7.47 -9.9 2.53 -22.77 5.71 -28.6 7.06 -5.83 1.35 -13.71 2.88 -17.5 3.41&#xA;-3.79 .53 -8.47 .63 -10.4 .23 -2.73 -.57 -4.22 -1.82 -6.75 -5.68 -1.79&#xA;-2.72 -3.51 -6.36 -3.84 -8.08 -.37 -1.98 -2.55 -5.07 -5.93 -8.41 l-5.34&#xA;-5.27 -6.68 5.32 c-5.3 4.22 -7.02 5.11 -8.32 4.3 -.9 -.56 -6.74 -8.18&#xA;-12.97 -16.92 -6.23 -8.75 -13.35 -19.61 -15.83 -24.15 l-4.5 -8.25 4.47 -5.1&#xA;c2.46 -2.81 5.05 -6.21 5.78 -7.55 1.26 -2.36 .81 -2.95 -12.64 -16.4 l-13.95&#xA;-13.95 -13.74 13.77z m18.76 189.74 c3.85 2.45 11.65 7.95 17.34 12.23 5.69&#xA;4.28 14.25 10.75 19.03 14.39 8.35 6.36 8.83 6.94 12.31 15 1.99 4.61 7.55&#xA;18.06 12.35 29.89 4.8 11.82 9.82 24.09 11.14 27.26 1.93 4.62 2.23 6.4 1.49&#xA;9 -.51 1.78 -6.29 15.61 -12.86 30.74 -6.56 15.12 -12.52 28.96 -13.24 30.75&#xA;-.72 1.79 -1.65 3.25 -2.07 3.25 -.42 0 -6.76 4.32 -14.09 9.6 -7.33 5.28&#xA;-15.24 11.28 -17.58 13.34 -2.34 2.06 -7.37 5.84 -11.2 8.4 -3.82 2.56 -8.07&#xA;4.66 -9.45 4.66 -1.57 0 -7.08 -3.36 -14.84 -9.04 -6.79 -4.97 -17.85 -12.96&#xA;-24.57 -17.75 l-12.23 -8.71 -6.11 -13.5 c-3.36 -7.43 -9.78 -22.28 -14.25&#xA;-33 -7.35 -17.6 -8.14 -20.13 -8.15 -26 -0 -5.76 .6 -7.8 5.35 -18 2.95 -6.32&#xA;9.98 -21.03 15.62 -32.67 l10.27 -21.17 19.36 -14.39 c10.65 -7.91 20.71&#xA;-15.36 22.36 -16.54 1.65 -1.19 3.9 -2.16 5 -2.17 1.1 -.01 5.15 1.99 9 4.44z" fill="#cba242" fill-rule="evenodd" stroke="#cba242" stroke-linejoin="round" stroke-width="0.80"/>
<path d="M1781 2389.06 c-4.67 .42 -17.5 1.71 -28.5 2.87 -11 1.16 -26.75 2.96 -35&#xA;4.01 -8.25 1.05 -21.08 2.84 -28.5 3.98 -7.42 1.14 -20.47 3.47 -29 5.16&#xA;-8.53 1.69 -24.76 5.28 -36.08 7.96 -11.32 2.69 -25.83 6.48 -32.25 8.42&#xA;-6.42 1.95 -16.28 5.61 -21.92 8.14 -5.64 2.53 -12.95 6.17 -16.25 8.1 -3.3&#xA;1.92 -8.75 5.46 -12.12 7.85 -3.37 2.39 -8.18 6.65 -10.7 9.45 -2.52 2.81&#xA;-5.84 7.66 -7.37 10.78 -2.02 4.12 -2.78 7.19 -2.78 11.21 0 4.29 .65 6.64&#xA;2.91 10.51 1.6 2.74 6.09 8.04 9.98 11.78 3.89 3.73 9.36 8.32 12.14 10.18&#xA;2.79 1.87 9.76 5.87 15.5 8.89 5.74 3.02 15.01 7.31 20.61 9.53 5.6 2.22&#xA;19.81 7.39 31.57 11.49 11.77 4.1 30.14 9.95 40.82 13.01 10.68 3.06 27.08&#xA;7.17 36.43 9.15 9.35 1.98 23.53 4.89 31.5 6.47 7.97 1.58 18.33 3.56 23 4.4&#xA;4.67 .84 20.2 3.32 34.5 5.52 14.3 2.2 31.21 4.68 37.58 5.51 6.37 .83 16.05&#xA;2.22 21.5 3.08 5.45 .86 12.29 2.24 15.2 3.07 2.91 .83 5.67 1.26 6.15 .97&#xA;.47 -.29 .52 -2 .1 -3.79 -.42 -1.79 -4.23 -14.28 -8.47 -27.76 -4.24 -13.47&#xA;-12.22 -38.9 -17.72 -56.5 -5.51 -17.6 -12.41 -39.43 -15.35 -48.5 -2.94&#xA;-9.07 -8.11 -25.95 -11.51 -37.5 -3.39 -11.55 -7.04 -22.42 -8.1 -24.15 -1.06&#xA;-1.73 -2.63 -3.42 -3.49 -3.75 -.86 -.33 -2.54 -.53 -3.73 -.45 -1.19 .08&#xA;-5.99 .49 -10.67 .92z M2439.77 2421.75 c-1.43 1.51 -4.69 6.29 -7.23 10.61&#xA;-2.55 4.32 -7.55 13.7 -11.13 20.84 -3.58 7.14 -11.71 22.5 -18.08 34.14&#xA;-6.37 11.64 -15.19 27.46 -19.62 35.16 -4.42 7.7 -11.14 19.58 -14.94 26.41&#xA;-3.79 6.82 -8.24 15.05 -9.87 18.29 -1.63 3.24 -2.7 6.31 -2.38 6.84 .33 .53&#xA;1.58 .97 2.78 .98 1.21 .01 8.49 -1.55 16.19 -3.46 7.7 -1.92 24.35 -6.01 37&#xA;-9.1 12.65 -3.09 34.7 -9.45 49 -14.14 14.3 -4.69 32.75 -11.24 41 -14.55&#xA;8.25 -3.31 20.66 -8.88 27.57 -12.37 6.91 -3.5 17.28 -9.47 23.04 -13.28 5.76&#xA;-3.81 12.19 -8.81 14.28 -11.13 2.09 -2.32 4.88 -6.52 6.2 -9.35 1.61 -3.46&#xA;2.39 -6.94 2.39 -10.64 0 -3.7 -.78 -7.18 -2.39 -10.64 -1.32 -2.83 -4.11&#xA;-7.04 -6.2 -9.36 -2.1 -2.32 -6.3 -5.91 -9.35 -7.98 -3.04 -2.07 -9.63 -5.81&#xA;-14.63 -8.32 -5 -2.51 -13.72 -6.18 -19.38 -8.15 -5.66 -1.97 -13.72 -4.45&#xA;-17.91 -5.51 -4.19 -1.06 -13.18 -2.86 -19.98 -3.99 -6.8 -1.13 -17.37 -2.51&#xA;-23.5 -3.05 -6.13 -.54 -13.19 -.99 -15.7 -.99 -3.69 -.01 -5.06 .52 -7.17&#xA;2.74z M2238.55 2440.6 c-.37 1.98 -1.31 5.02 -2.09 6.75 -.78 1.73 -3.05 7.42&#xA;-5.04 12.65 -1.99 5.22 -5.8 14.07 -8.46 19.66 -2.66 5.59 -6.37 12.34 -8.25&#xA;15 -1.88 2.66 -5.4 8.14 -7.81 12.16 -5.4 9 -9.06 15.21 -10.58 17.92 -1 1.78&#xA;-5.14 9.88 -9.2 18 -4.06 8.12 -10.24 20.64 -13.72 27.83 -3.48 7.19 -7.25&#xA;13.9 -8.38 14.92 -1.89 1.71 -4.27 1.86 -30.44 1.93 -15.62 .04 -28.77 .45&#xA;-29.23 .91 -.46 .46 .48 1.79 1.84 2.89 2.37 1.92 3.48 1.77 30.46 1.44 26.33&#xA;-.32 28.3 -.3 30.33 -2.13 1.19 -1.08 4.24 -5.77 6.77 -10.41 2.53 -4.65 7.84&#xA;-15.47 11.8 -24.04 14.71 -31.89 21.9 -45.93 26.87 -52.5 2.95 -3.9 7.18&#xA;-10.01 9.41 -13.59 2.22 -3.57 5.44 -10.32 7.15 -15 1.71 -4.68 4.68 -14.35&#xA;6.61 -21.5 1.93 -7.15 3.75 -13.79 4.04 -14.75 .34 -1.11 .18 -1.75 -.43&#xA;-1.75 -.53 0 -1.26 1.62 -1.63 3.6z M1514.02 2533.97 c-.66 1.23 -1.02 24.16&#xA;-1.02 64.84 0 51.31 -.25 63.15 -1.34 64.05 -.96 .8 -42.1 1.19 -146.75 1.38&#xA;-117.24 .22 -146.16 .53 -149.28 1.59 -2.17 .74 -6.4 3.81 -9.63 6.99 -4.19&#xA;4.12 -6.34 7.25 -7.88 11.46 -1.8 4.89 -2.12 7.99 -2.12 20 0 12.03 .39 15.66&#xA;2.52 23.62 1.39 5.17 3.74 11.64 5.22 14.37 1.49 2.73 5.25 7.27 8.37 10.09&#xA;3.12 2.82 10.33 7.9 16.03 11.28 5.69 3.38 26.1 15.48 45.35 26.89 19.25&#xA;11.41 41.53 24.69 49.5 29.53 7.97 4.83 21.25 12.9 29.5 17.94 8.25 5.03 24&#xA;14.45 35 20.94 11 6.48 23.6 14.03 28 16.78 4.4 2.75 11.15 6.81 15 9.04&#xA;15.95 9.21 63.79 37.59 70 41.53 6.05 3.84 14.6 9.8 19 13.26 4.4 3.46 12.11&#xA;10.49 17.14 15.62 5.03 5.14 12.31 13.59 16.19 18.8 3.88 5.2 9.28 13.53&#xA;12.01 18.5 2.73 4.97 6.63 13.54 8.68 19.04 2.05 5.5 5.02 15.18 6.61 21.5&#xA;2.05 8.18 3.23 16.3 4.06 28.15 .89 12.64 .9 20.7 .03 33.5 -.9 13.27 -1.88&#xA;19.75 -4.62 30.51 -1.91 7.51 -5.51 18.72 -7.99 24.9 -2.48 6.18 -6.63 14.89&#xA;-9.21 19.34 -2.58 4.45 -7.17 11.47 -10.19 15.6 -3.02 4.12 -10.97 12.91&#xA;-17.66 19.52 -7.71 7.62 -16.12 14.71 -22.95 19.36 -5.93 4.04 -16.25 9.93&#xA;-22.94 13.11 -6.69 3.17 -15.08 6.71 -18.66 7.85 -3.58 1.15 -10.78 3.05 -16&#xA;4.23 -7.95 1.79 -13.74 2.21 -35.5 2.6 -14.3 .26 -27.58 .94 -29.5 1.52 -1.92&#xA;.58 -6.23 2.99 -9.57 5.35 -3.34 2.36 -7.31 5.91 -8.81 7.89 -1.51 1.98 -3.62&#xA;5.58 -4.7 8.02 -1.9 4.3 -1.95 6.92 -1.69 92.23 l.27 87.81 2.9 4.94 c1.6&#xA;2.72 4.69 6.88 6.88 9.25 2.19 2.37 6.73 5.67 10.1 7.33 l6.12 3.01 145.5&#xA;-.26 145.5 -.26 5.5 -2.88 c3.03 -1.58 7.26 -4.27 9.41 -5.96 2.15 -1.69 6.49&#xA;-6.57 9.65 -10.82 3.16 -4.26 9.01 -13.28 13 -20.04 4.9 -8.29 9.42 -14.46&#xA;13.89 -18.94 5.68 -5.7 7.62 -6.96 13.58 -8.88 l6.96 -2.23 265.61 -.26&#xA;c146.09 -.14 279.51 .05 296.5 .42 29.44 .65 31.14 .79 36.17 3.02 7.59 3.37&#xA;16.37 13.26 23.22 26.19 3.03 5.71 8.11 14.3 11.29 19.1 3.19 4.79 7.69 10.25&#xA;10 12.13 2.31 1.88 6.68 4.7 9.71 6.28 l5.5 2.87 146 0 146 0 5.3 -2.94 c2.92&#xA;-1.62 6.84 -4.64 8.71 -6.71 1.88 -2.08 4.59 -6.11 6.04 -8.96 1.89 -3.73&#xA;2.87 -7.73 3.51 -14.29 1.19 -12.3 1.12 -150.56 -.08 -158.87 -.54 -3.72&#xA;-2.29 -9.66 -3.89 -13.18 -1.63 -3.59 -4.89 -8.4 -7.41 -10.91 -2.47 -2.47&#xA;-6.23 -5.37 -8.34 -6.43 -2.11 -1.06 -6.1 -2.42 -8.85 -3.01 -2.75 -.59&#xA;-15.35 -1.3 -28 -1.56 -17.54 -.37 -25.49 -.97 -33.5 -2.53 -5.78 -1.13&#xA;-13.88 -3.13 -18 -4.46 -4.12 -1.33 -11.1 -3.95 -15.5 -5.83 -4.4 -1.88&#xA;-11.19 -5.29 -15.1 -7.57 -3.9 -2.28 -10.69 -6.86 -15.07 -10.17 -4.39 -3.31&#xA;-12.45 -10.65 -17.92 -16.3 -5.47 -5.65 -12.72 -14.36 -16.12 -19.36 -3.4 -5&#xA;-8.7 -13.84 -11.77 -19.65 -3.07 -5.81 -6.91 -14.16 -8.51 -18.57 -1.61 -4.4&#xA;-3.83 -11.56 -4.94 -15.91 -1.11 -4.35 -3 -13.73 -4.19 -20.85 -1.74 -10.37&#xA;-2.17 -17.02 -2.17 -33.44 0 -14.56 .46 -22.82 1.58 -28.5 .86 -4.4 1.87&#xA;-10.25 2.23 -13 .36 -2.75 2 -9.2 3.64 -14.33 1.64 -5.13 4.47 -12.78 6.29&#xA;-17 1.82 -4.22 5.59 -11.6 8.38 -16.41 2.79 -4.81 7.86 -12.46 11.27 -17 3.41&#xA;-4.54 11.42 -13.44 17.8 -19.77 8.47 -8.4 15.25 -13.96 25.1 -20.57 7.43&#xA;-4.98 16.88 -11.08 21 -13.56 4.12 -2.48 15.38 -9.15 25 -14.83 9.62 -5.68&#xA;20.2 -11.99 23.5 -14.04 3.3 -2.05 25.12 -15.19 48.5 -29.21 23.38 -14.02&#xA;55.1 -33.06 70.5 -42.31 15.4 -9.25 42.62 -25.78 60.5 -36.74 17.88 -10.96&#xA;35.69 -22.31 39.59 -25.23 3.9 -2.92 8.52 -7.46 10.27 -10.1 1.75 -2.64 4.28&#xA;-8.3 5.64 -12.58 2.26 -7.16 2.51 -9.9 3.08 -34.05 .37 -15.9 .21 -30.36 -.42&#xA;-36.66 -.82 -8.26 -1.67 -11.7 -4.14 -16.71 -2.06 -4.19 -5.01 -8 -8.77&#xA;-11.35 -3.11 -2.78 -7.93 -5.88 -10.71 -6.91 -4.85 -1.79 -10.39 -1.84&#xA;-144.86 -1.36 -107.23 .38 -140.09 .22 -141 -.69 -.85 -.85 -1.39 -12.04&#xA;-1.89 -39.39 -.39 -21.01 -.99 -41.04 -1.34 -44.51 -.38 -3.82 -1.15 -6.52&#xA;-1.96 -6.82 -.73 -.28 -8.23 3.35 -16.67 8.06 -8.44 4.72 -21.65 11.44 -29.34&#xA;14.95 -7.69 3.51 -21.19 9.31 -29.99 12.89 -8.8 3.58 -23.85 9.05 -33.45&#xA;12.14 -9.6 3.09 -22.42 7.01 -28.5 8.71 -6.08 1.7 -15.37 4.39 -20.64 5.98&#xA;-5.28 1.59 -20.35 5.56 -33.5 8.81 -13.15 3.25 -29.75 7.08 -36.9 8.52 -7.15&#xA;1.43 -17.47 3.6 -22.93 4.81 -5.46 1.22 -11.31 3.14 -13 4.27 -1.69 1.13&#xA;-6.87 7 -11.52 13.03 -5.07 6.57 -18.28 20.78 -33 35.47 -13.5 13.47 -30.66&#xA;29.9 -38.13 36.5 -7.47 6.6 -17.37 15.23 -22 19.18 -4.63 3.95 -12.96 10.93&#xA;-18.51 15.5 -5.55 4.57 -15.87 12.82 -22.93 18.32 -7.06 5.5 -14.44 11.39&#xA;-16.4 13.08 -1.96 1.7 -10.55 8.32 -19.07 14.71 -8.53 6.4 -17.79 13.58&#xA;-20.59 15.97 -2.8 2.39 -6.35 5.25 -7.88 6.37 -2.65 1.93 -2.73 2.22 -1.59&#xA;5.68 .66 2.01 3.34 6.92 5.96 10.92 2.61 4 6.68 9.52 9.04 12.27 2.36 2.75&#xA;6.34 6.65 8.86 8.67 2.52 2.02 6.48 4.21 8.81 4.86 3.19 .89 6.22 .92 12.28&#xA;.1 4.43 -.6 18.07 -3.55 30.33 -6.58 12.25 -3.02 29.65 -7.5 38.66 -9.94 9.01&#xA;-2.45 16.96 -4.23 17.67 -3.96 .71 .27 2.34 -.2 3.64 -1.04 1.29 -.85 4.14&#xA;-2.16 6.33 -2.92 2.19 -.76 5.22 -1.69 6.73 -2.06 2.41 -.59 2.75 -.38 2.75&#xA;1.66 0 1.28 -1.11 5.16 -2.47 8.63 -1.36 3.46 -2.88 6.81 -3.37 7.44 -.5 .63&#xA;-1.14 2.49 -1.42 4.14 -.28 1.65 -4.89 15.6 -10.24 31 -5.35 15.4 -10.84&#xA;31.38 -12.21 35.5 -1.39 4.2 -2.72 11.04 -3.01 15.55 -.38 5.76 -.08 9.61&#xA;1.07 13.55 .88 3.02 3.38 8.26 5.57 11.64 6.24 9.66 19.34 19.72 47.27 36.31&#xA;13.38 7.94 27.06 16.3 30.4 18.58 3.35 2.28 7.17 4.47 8.5 4.88 1.33 .41 4.78&#xA;2.14 7.67 3.86 2.89 1.71 5.52 3.95 5.85 4.98 .33 1.02 .09 2.38 -.53 3.01&#xA;-.62 .63 -4.71 2.95 -9.09 5.15 -4.38 2.2 -12.36 6.68 -17.73 9.95 -18.36&#xA;11.2 -49.31 30.46 -53.45 33.26 -3.68 2.49 -10.32 8.25 -14.75 12.79 -4.66&#xA;4.78 -9.01 10.31 -10.31 13.12 -1.9 4.12 -2.23 6.48 -2.16 15.37 .07 8.53 .69&#xA;12.75 3.33 22.5 1.78 6.6 5.73 18.75 8.78 27 3.04 8.25 7.27 20.18 9.39 26.5&#xA;2.12 6.32 3.87 12.65 3.89 14.05 .02 1.4 .45 2.98 .97 3.5 .52 .52 2.29 4.77&#xA;3.94 9.43 1.65 4.66 2.88 8.6 2.73 8.74 -.14 .14 -2.93 -.43 -6.19 -1.27&#xA;-3.26 -.84 -7.76 -2.41 -9.99 -3.49 -2.24 -1.08 -4.89 -1.96 -5.89 -1.96 -1 0&#xA;-5.02 -.94 -8.93 -2.09 -3.91 -1.15 -18.58 -5.72 -32.61 -10.16 -14.03 -4.44&#xA;-29.1 -9.16 -33.5 -10.5 -4.4 -1.33 -11.66 -2.67 -16.13 -2.97 -4.47 -.3&#xA;-9.71 -.25 -11.64 .11 -1.93 .36 -5.64 2.28 -8.24 4.27 -2.6 1.99 -7.94 8.01&#xA;-11.86 13.4 -3.92 5.38 -8.92 12.63 -11.1 16.11 -2.18 3.48 -8.04 12.86&#xA;-13.02 20.83 -4.98 7.97 -11.57 18.32 -14.64 23 -3.07 4.68 -7.95 13 -10.86&#xA;18.5 -2.9 5.5 -5.97 10.79 -6.81 11.75 -.84 .96 -1.88 1.75 -2.32 1.75 -.44&#xA;-0 -2.11 -1.91 -3.72 -4.25 -1.61 -2.34 -6.28 -10.1 -10.39 -17.25 -4.11&#xA;-7.15 -12.79 -21.78 -19.29 -32.5 -6.5 -10.72 -14.24 -23.26 -17.19 -27.85&#xA;-2.96 -4.59 -7.16 -10.76 -9.34 -13.7 -2.77 -3.75 -6.13 -6.64 -11.21 -9.63&#xA;-6.47 -3.81 -7.9 -4.26 -13.25 -4.18 -3.3 .05 -10.5 1.26 -16 2.68 -5.5 1.42&#xA;-17.65 5.04 -27 8.03 -9.35 2.99 -24.48 7.74 -33.62 10.54 -9.14 2.81 -18 5.1&#xA;-19.69 5.1 -1.69 0 -3.34 .44 -3.67 .97 -.33 .53 -3.67 1.88 -7.42 3 -3.75&#xA;1.12 -7.56 2.03 -8.46 2.03 -1.04 0 -1.64 -.82 -1.63 -2.25 .01 -1.24 1.16&#xA;-5.85 2.56 -10.25 1.4 -4.4 3.13 -8.9 3.84 -10 .71 -1.1 1.87 -4.47 2.57 -7.5&#xA;.71 -3.03 3.93 -13.15 7.17 -22.5 3.24 -9.35 7.19 -21.5 8.79 -27 1.59 -5.5&#xA;4.06 -14.58 5.48 -20.18 1.42 -5.6 2.58 -12.12 2.58 -14.5 -0 -2.72 -1.11&#xA;-6.66 -2.98 -10.62 -1.64 -3.47 -5.13 -8.59 -7.75 -11.39 -2.62 -2.79 -9.46&#xA;-8.81 -15.19 -13.36 -5.73 -4.55 -14.06 -10.41 -18.5 -13 -5.87 -3.44 -29.88&#xA;-17.43 -40.07 -23.35 -4.4 -2.56 -9.35 -5.36 -11 -6.23 -8.82 -4.65 -17.5&#xA;-10.23 -17.5 -11.25 0 -.72 .86 -2.08 1.91 -3.03 1.05 -.95 5.94 -3.83 10.86&#xA;-6.4 4.92 -2.57 13.4 -7.33 18.84 -10.56 5.44 -3.24 15.76 -9.38 22.94 -13.65&#xA;7.18 -4.27 18.43 -11.25 25 -15.52 6.57 -4.26 14.16 -10.05 16.85 -12.85 2.7&#xA;-2.81 6.2 -7.13 7.79 -9.6 1.59 -2.47 3.82 -7.58 4.97 -11.35 1.54 -5.06 1.92&#xA;-8.22 1.47 -12.11 -.34 -2.9 -1.76 -9.27 -3.16 -14.15 -1.4 -4.89 -7.03&#xA;-22.68 -12.51 -39.54 -5.48 -16.86 -9.96 -31.39 -9.96 -32.29 0 -.9 -.65&#xA;-2.63 -1.45 -3.85 -.8 -1.22 -2.14 -4.88 -2.99 -8.14 -.85 -3.26 -1.39 -6.08&#xA;-1.2 -6.26 .19 -.19 3.44 .61 7.24 1.77 3.8 1.16 7.33 2.52 7.85 3.01 .52 .5&#xA;1.98 .91 3.23 .91 1.25 0 11.2 2.45 22.1 5.44 10.9 2.99 27.9 7.45 37.77 9.92&#xA;9.87 2.46 21.4 5.02 25.62 5.68 4.43 .7 10.05 .91 13.29 .51 3.39 -.42 8.66&#xA;-2.24 13.33 -4.58 7.24 -3.65 8.21 -4.54 15.85 -14.67 4.48 -5.94 11.23&#xA;-15.76 15 -21.82 3.77 -6.07 11.36 -18.36 16.86 -27.32 5.5 -8.96 12.12&#xA;-19.69 14.7 -23.86 2.59 -4.16 5.58 -8.52 6.65 -9.68 1.07 -1.16 2.1 -2.96&#xA;2.3 -4.01 .19 -1.04 1.17 -2.39 2.17 -3 1.51 -.92 2.25 -.6 4.33 1.89 1.38&#xA;1.65 4.79 5.84 7.57 9.31 l5.05 6.31 2.88 -2.76 c1.59 -1.52 4.39 -5.03 6.22&#xA;-7.81 1.83 -2.77 5.82 -9.54 8.86 -15.04 3.04 -5.5 9.23 -16.53 13.76 -24.5&#xA;4.53 -7.97 13.83 -24.54 20.67 -36.81 6.84 -12.27 14.84 -27.57 17.78 -34&#xA;2.94 -6.43 5.51 -12.59 5.7 -13.69 .34 -1.95 -.18 -2 -19.65 -1.93 -11 .04&#xA;-45.88 .44 -77.5 .91 -41.05 .6 -65.08 .5 -84 -.35 -14.58 -.65 -40.67 -1.62&#xA;-58 -2.14 -17.33 -.53 -36.22 -1.41 -42 -1.96 -5.78 -.55 -16.12 -1.46 -22.98&#xA;-2.02 -6.86 -.56 -17.66 -1.71 -24 -2.56 -12.63 -1.7 -41.88 -6.03 -61.02&#xA;-9.03 -12.38 -1.94 -28.35 -4.64 -35.5 -5.99 -7.15 -1.35 -18.17 -3.6 -24.5&#xA;-4.99 -6.33 -1.39 -19.38 -4.5 -29 -6.92 -9.62 -2.42 -24.7 -6.68 -33.5 -9.48&#xA;-8.8 -2.8 -20.72 -6.69 -26.5 -8.64 -5.78 -1.95 -14.78 -5.36 -20 -7.57 -5.22&#xA;-2.21 -19.55 -8.91 -31.84 -14.88 -12.29 -5.97 -24.44 -12.14 -27 -13.71&#xA;-2.56 -1.57 -5.44 -3.14 -6.4 -3.49 -1.14 -.43 -2.08 0 -2.75 1.25z M2024.82&#xA;2906.66 c-10.08 7.52 -23.3 17.37 -29.39 21.9 -6.09 4.53 -13.2 10.6 -15.8&#xA;13.5 -2.65 2.95 -6.65 9.27 -9.07 14.35 -2.38 5 -10.01 20.89 -16.95 35.32&#xA;-9.62 20.01 -12.61 27.18 -12.61 30.2 0 2.18 1.07 6.8 2.39 10.26 1.31 3.46&#xA;4.52 11.25 7.12 17.3 2.6 6.05 6.47 15.38 8.59 20.72 2.12 5.35 5.94 13.9 8.5&#xA;19 2.55 5.1 6.19 11.4 8.08 13.99 1.92 2.64 8.37 8.41 14.63 13.11 6.15 4.62&#xA;15.24 11.14 20.19 14.5 4.95 3.36 13.72 9.77 19.5 14.24 5.78 4.47 11.63 8.72&#xA;13.01 9.43 2.03 1.05 3.19 1.07 6 .09 1.92 -.67 7.09 -4.01 11.49 -7.43 4.4&#xA;-3.42 12.06 -9.3 17.02 -13.07 4.96 -3.77 14.45 -10.5 21.08 -14.96 6.63&#xA;-4.45 14.41 -10.58 17.28 -13.61 2.87 -3.03 6.51 -8.33 8.09 -11.77 1.58&#xA;-3.44 8.14 -18.41 14.57 -33.26 6.43 -14.85 12.11 -28.46 12.62 -30.24 .74&#xA;-2.6 .45 -4.38 -1.49 -9 -1.33 -3.17 -6.35 -15.44 -11.16 -27.26 -15.54&#xA;-38.19 -16.77 -40.8 -22.42 -47.29 -2.97 -3.42 -7.78 -8.01 -10.69 -10.21&#xA;-6.2 -4.7 -42.1 -31.48 -43.66 -32.58 -1.24 -.87 -5.44 -3.68 -9.34 -6.25&#xA;-3.9 -2.57 -7.58 -4.67 -8.18 -4.67 -.6 0 -9.33 6.15 -19.41 13.66z" fill="#162f4c" fill-rule="evenodd" stroke="#162f4c" stroke-linejoin="round" stroke-width="0.80"/>
<path d="M2054 875.4 c0 .22 .91 6.52 2.02 13.99 1.98 13.3 2.03 19.42 2.59 280.85 .32&#xA;146.99 .63 292.57 .7 323.51 .09 40.23 .44 56.25 1.23 56.25 .61 0 2 -1.01&#xA;3.09 -2.25 1.09 -1.24 2.72 -3.44 3.62 -4.89 .9 -1.45 6.51 -7.75 12.47 -14&#xA;5.96 -6.25 12.1 -12.94 13.66 -14.86 2.03 -2.51 17.54 -19.67 27.61 -30.54&#xA;4.12 -4.45 14.7 -16.35 23.5 -26.45 8.8 -10.1 18.65 -21.32 21.9 -24.93 3.24&#xA;-3.62 12.02 -12.88 19.51 -20.58 7.48 -7.7 16.14 -17.38 19.23 -21.5 3.09&#xA;-4.12 11.57 -13.57 18.85 -21 7.28 -7.43 15.75 -16.65 18.82 -20.5 3.07 -3.85&#xA;9.89 -11.47 15.14 -16.93 5.25 -5.46 13.15 -13.13 17.55 -17.04 4.4 -3.91&#xA;9.21 -8.04 10.7 -9.18 l2.7 -2.07 -2.58 -4.9 c-1.42 -2.69 -3.37 -6.02 -4.32&#xA;-7.4 -.96 -1.38 -4.2 -7.22 -7.21 -13 -3.01 -5.78 -6.72 -12.75 -8.25 -15.5&#xA;-1.53 -2.75 -4.11 -7.37 -5.74 -10.27 -1.63 -2.9 -4.87 -8.98 -7.19 -13.5&#xA;-5.17 -10.07 -20.87 -39.88 -24.86 -47.23 -2.99 -5.5 -9.86 -18.55 -15.25 -29&#xA;-5.4 -10.45 -14.5 -27.78 -20.23 -38.5 -5.73 -10.72 -11.06 -20.21 -11.84&#xA;-21.08 -.78 -.87 -1.42 -2.29 -1.42 -3.15 0 -.86 -1.57 -3.91 -3.5 -6.77&#xA;-1.93 -2.86 -3.5 -5.67 -3.5 -6.23 0 -.57 -2.88 -6.26 -6.39 -12.65 -3.52&#xA;-6.39 -13.24 -24.44 -21.61 -40.12 -8.37 -15.68 -16.86 -31.39 -18.86 -34.92&#xA;-2 -3.53 -5.91 -10.73 -8.68 -16 -2.77 -5.27 -7.16 -13.34 -9.75 -17.94 -2.59&#xA;-4.6 -4.71 -8.59 -4.71 -8.87 0 -.28 -3.31 -6.42 -7.36 -13.64 -4.05 -7.22&#xA;-9.88 -17.85 -12.96 -23.63 -3.08 -5.78 -8.66 -15.55 -12.39 -21.73 -3.73&#xA;-6.18 -8.59 -13.71 -10.79 -16.74 -2.2 -3.03 -4.34 -5.51 -4.75 -5.52 -.41 -0&#xA;-.75 .17 -.75 .4z M2032.9 898.19 c-.64 1.2 -1.9 2.97 -2.79 3.92 -.89 .96&#xA;-4.37 6.38 -7.74 12.06 -6.19 10.43 -16.37 28.07 -16.37 28.36 0 .19 -2.61&#xA;4.54 -5.8 9.66 -3.19 5.12 -10.11 16.96 -15.38 26.31 -5.27 9.35 -16.68 29.82&#xA;-25.35 45.5 -8.67 15.68 -19.48 35.03 -24.01 43 -4.54 7.97 -12.73 22.6&#xA;-18.22 32.5 -9.75 17.6 -39.41 70.75 -45.2 81 -3.73 6.6 -12.88 23.03 -20.33&#xA;36.5 -7.45 13.47 -18.25 33.28 -24.01 44 -5.76 10.72 -13.17 24.46 -16.47&#xA;30.52 l-6 11.02 26.78 27.16 c14.73 14.94 34.33 35.41 43.57 45.48 9.24 10.07&#xA;26.72 28.68 38.86 41.35 12.14 12.67 31.56 33.37 43.16 46 11.6 12.63 27.71&#xA;30.39 35.8 39.47 8.09 9.07 19.89 21.34 26.23 27.25 6.34 5.91 11.84 10.75&#xA;12.22 10.75 .38 0 .56 -107.44 .38 -238.75 -.26 -198.52 .72 -387.25 2.09&#xA;-400 .31 -2.89 .38 -5.25 .16 -5.25 -.22 0 -.93 .98 -1.58 2.19z M1789.07&#xA;1330.76 c-1.34 2.06 -25.45 49.19 -53.58 104.74 -28.13 55.55 -55.1 108.88&#xA;-59.93 118.5 -4.83 9.62 -17.71 34.82 -28.63 56 -10.92 21.18 -20.5 40.08&#xA;-21.3 42.01 l-1.45 3.51 25.16 17.94 c13.84 9.87 31.24 22.34 38.66 27.72&#xA;7.42 5.37 23.85 17.46 36.5 26.86 12.65 9.4 29.48 21.67 37.39 27.28 7.92 5.6&#xA;19.39 13.77 25.5 18.15 6.11 4.38 22.13 15.56 35.61 24.85 13.47 9.29 25.5&#xA;17.36 26.72 17.94 1.76 .83 2.56 .76 3.88 -.34 .91 -.76 4.05 -4.54 6.97 -8.4&#xA;5.49 -7.26 18.51 -24 21.5 -27.65 1.97 -2.4 11.4 -14.49 20.97 -26.87 9.56&#xA;-12.38 22.58 -29.09 28.92 -37.14 6.34 -8.05 14.91 -19.04 19.03 -24.42 5.8&#xA;-7.56 19 -24.52 25.25 -32.44 2.82 -3.57 10.04 -12.8 16.04 -20.5 6 -7.7&#xA;13.99 -17.82 17.75 -22.5 3.77 -4.68 9.72 -12.16 13.23 -16.62 3.51 -4.47&#xA;6.95 -9.49 7.64 -11.15 1.03 -2.48 1.02 -3.49 -.08 -5.57 -.73 -1.39 -6.77&#xA;-8.3 -13.41 -15.35 -6.64 -7.05 -16.28 -17.53 -21.4 -23.31 -5.13 -5.78&#xA;-14.58 -16.12 -21 -23 -6.42 -6.88 -15.66 -17 -20.52 -22.5 -7.07 -8 -37.57&#xA;-41.41 -51.99 -56.96 -7.15 -7.71 -18.65 -19.87 -25.55 -27.03 -6.9 -7.16&#xA;-17.98 -19.09 -24.62 -26.51 -6.64 -7.43 -22.59 -24.2 -35.45 -37.27 -12.86&#xA;-13.08 -23.83 -23.76 -24.38 -23.74 -.55 .02 -2.09 1.72 -3.43 3.77z M2043.56&#xA;1615.27 c-2.78 2.9 -9.03 10.43 -13.88 16.75 -4.85 6.32 -11.01 14.18 -13.68&#xA;17.48 -2.67 3.3 -10.4 13.12 -17.17 21.81 -6.78 8.7 -15.25 19.56 -18.82&#xA;24.14 -3.58 4.58 -11.87 15.24 -18.43 23.69 -17.9 23.04 -41.19 52.48 -51.54&#xA;65.12 -7.99 9.77 -20.26 24.84 -27.26 33.5 -7 8.66 -13.47 17.28 -14.38 19.16&#xA;-1.25 2.59 -1.51 5.03 -1.08 10 .31 3.62 2.19 14.45 4.17 24.07 1.98 9.62&#xA;4.46 21.78 5.5 27 1.05 5.22 3.53 17.15 5.52 26.5 1.99 9.35 5.13 24.65 6.97&#xA;34 3.13 15.88 6.24 32.55 9.58 51.5 1.7 9.62 3.72 20.2 4.49 23.5 .77 3.3&#xA;2.34 11.18 3.49 17.5 1.15 6.32 3.42 17.8 5.05 25.5 1.63 7.7 5.85 27.72 9.38&#xA;44.5 3.53 16.78 7.6 36.8 9.04 44.5 4.31 23.06 13.5 69.44 17.53 88.5 1.69&#xA;7.97 3.53 16.97 4.09 20 .57 3.03 2.54 13.15 4.38 22.5 1.85 9.35 4.53 23.3&#xA;5.96 31 1.43 7.7 3.05 15.94 3.6 18.3 .55 2.37 4.55 21.49 8.89 42.5 4.34&#xA;21.01 9.47 45.4 11.4 54.2 1.93 8.8 4.23 20.28 5.11 25.5 .88 5.22 3.35 18.28&#xA;5.47 29 2.13 10.72 4.85 24.68 6.05 31 1.85 9.77 6.73 33.67 9.43 46.2 1.39&#xA;6.43 3.33 13.41 4.32 15.5 l1.79 3.8 18.23 0 18.23 0 3.76 -3.76 3.76 -3.76&#xA;.5 -17.74 c.28 -9.75 .17 -146.66 -.24 -304.24 -.41 -157.57 -.97 -353.55&#xA;-1.25 -435.5 -.28 -81.95 -.63 -161.69 -.77 -177.19 l-.26 -28.19 -2.55 -2.81&#xA;c-1.4 -1.54 -3.65 -4.49 -4.99 -6.55 -1.34 -2.06 -2.87 -3.75 -3.39 -3.75&#xA;-.52 -0 -3.22 2.36 -6 5.26z M1616 1681.27 c0 .77 .31 1.71 .69 2.09 .38 .38&#xA;1.45 3.49 2.39 6.92 .94 3.43 5.74 17.7 10.68 31.73 4.94 14.03 10.35 29.78&#xA;12.02 35 1.67 5.22 5.94 18.5 9.5 29.5 3.55 11 9.86 30.57 14.02 43.5 4.16&#xA;12.93 11.67 36.55 16.69 52.5 5.02 15.95 12.43 38.9 16.47 51 4.04 12.1 15.47&#xA;47.2 25.39 78 9.93 30.8 21.47 67.03 25.66 80.5 4.19 13.47 10.05 32.15 13.03&#xA;41.5 2.98 9.35 8.85 27.8 13.03 41 4.19 13.2 10.32 32.55 13.64 43 3.31 10.45&#xA;10.44 32.5 15.84 49 5.4 16.5 11.41 35.4 13.35 42 1.95 6.6 8.44 26.85 14.43&#xA;45 5.99 18.15 13.69 41.78 17.11 52.5 3.42 10.72 9.15 28.72 12.74 40 4.15&#xA;13.07 23.57 72.79 28.77 88.5 1.82 5.5 6.4 19.6 10.18 31.34 l6.87 21.34 4.2&#xA;2.48 c3.22 1.9 6.6 2.72 14.5 3.52 5.66 .57 21.86 .88 35.99 .68 l25.69 -.35&#xA;2.88 -2.76 2.88 -2.76 -1.76 -6.74 c-.97 -3.71 -1.81 -6.74 -1.88 -6.74 -.07&#xA;0 -.28 -1.35 -.48 -3 -.2 -1.65 -1.51 -8.18 -2.91 -14.5 -4.22 -19.06 -11.39&#xA;-53.17 -12.61 -60 -1.03 -5.78 -2.99 -15.68 -4.36 -22 -1.37 -6.32 -3.67&#xA;-17.35 -5.13 -24.5 -1.45 -7.15 -4.38 -20.88 -6.49 -30.5 -2.98 -13.53 -10.91&#xA;-50.76 -15.98 -75 -2.24 -10.72 -4.74 -22.43 -5.54 -26 -.8 -3.57 -3.48 -16.4&#xA;-5.95 -28.5 -4.64 -22.75 -8.76 -42.58 -12.16 -58.5 -1.94 -9.07 -4.79 -21.9&#xA;-6.35 -28.5 -1.56 -6.6 -3.33 -14.25 -3.95 -17 -.62 -2.75 -1.33 -5.9 -1.6 -7&#xA;-.26 -1.1 -.91 -4.25 -1.44 -7 -.53 -2.75 -3.03 -14.9 -5.55 -27 -2.53 -12.1&#xA;-4.79 -23.33 -5.03 -24.97 -.42 -2.85 -3.12 -15.8 -8.44 -40.53 -6.17 -28.67&#xA;-15.14 -71.36 -15.55 -74 -.3 -1.93 -1.19 -6.2 -1.99 -9.5 -.8 -3.3 -2.53&#xA;-10.95 -3.86 -17 -1.33 -6.05 -3.19 -15.28 -4.14 -20.5 -.95 -5.22 -3.01&#xA;-15.57 -4.59 -23 -1.57 -7.43 -3.31 -15.75 -3.85 -18.5 -2.16 -10.86 -8.55&#xA;-41.4 -10.57 -50.5 -1.9 -8.53 -3.74 -18.06 -4.1 -21.19 -.5 -4.38 -1.31&#xA;-6.37 -3.49 -8.59 -1.56 -1.6 -12.64 -9.51 -24.62 -17.59 -11.98 -8.08 -26.06&#xA;-17.75 -31.28 -21.48 -5.22 -3.74 -19.85 -14.38 -32.5 -23.66 -12.65 -9.28&#xA;-28.4 -20.66 -35 -25.3 -6.6 -4.64 -15.83 -11.23 -20.5 -14.65 -4.67 -3.42&#xA;-18.85 -13.55 -31.5 -22.53 -12.65 -8.97 -26.15 -18.85 -30 -21.96 -3.85&#xA;-3.11 -8.46 -6.67 -10.25 -7.92 -2.38 -1.66 -3.25 -1.89 -3.25 -.86z" fill="#1cadfd" fill-rule="evenodd" stroke="#1cadfd" stroke-linejoin="round" stroke-width="0.80"/>
<path d="M2291.81 1331.73 c-3.47 4.25 -11 12.69 -16.73 18.75 -5.73 6.06 -13.1 14.17&#xA;-16.38 18.02 -3.28 3.85 -12.36 13.97 -20.18 22.5 -7.82 8.53 -17.77 19.6&#xA;-22.12 24.61 -11.97 13.78 -42.93 48.51 -50.91 57.1 -6.6 7.11 -16.5 17.99&#xA;-22 24.18 -5.5 6.2 -13.98 15.84 -18.85 21.44 -4.87 5.6 -13.91 15.8 -20.1&#xA;22.67 -6.19 6.88 -13.89 15.65 -17.11 19.5 -3.22 3.85 -9.08 10.6 -13.01 15&#xA;-3.93 4.4 -7.68 9.01 -8.33 10.25 -.91 1.74 -.9 2.76 .02 4.5 .66 1.24 4.02&#xA;5.62 7.46 9.75 3.44 4.12 11.81 14.4 18.59 22.84 6.78 8.44 22.68 28.54 35.33&#xA;44.67 12.65 16.13 34.68 43.88 48.95 61.66 51.14 63.72 71.77 88.77 73.55&#xA;89.33 1.09 .35 2.55 .31 3.24 -.08 .69 -.39 9.36 -6.71 19.26 -14.04 9.9&#xA;-7.33 26.32 -19.49 36.5 -27.02 10.18 -7.53 36.05 -26.81 57.5 -42.86 21.45&#xA;-16.04 43.5 -32.75 49 -37.12 5.5 -4.37 14.72 -11.5 20.5 -15.84 5.78 -4.34&#xA;15.34 -11.89 21.25 -16.79 9.71 -8.05 10.69 -9.16 10.18 -11.57 -.31 -1.47&#xA;-4.3 -10.09 -8.86 -19.17 -4.56 -9.07 -18.42 -36.3 -30.8 -60.5 -12.38 -24.2&#xA;-28.24 -55.03 -35.25 -68.5 -7.01 -13.47 -20.11 -39.12 -29.11 -57 -9 -17.88&#xA;-18.37 -36.32 -20.82 -41 -2.45 -4.68 -8.7 -17.05 -13.88 -27.5 -5.18 -10.45&#xA;-13.36 -26.65 -18.16 -36 -4.8 -9.35 -9.2 -17.56 -9.76 -18.25 -.57 -.69&#xA;-1.39 -1.25 -1.84 -1.25 -.45 0 -3.65 3.48 -7.13 7.73z M2054.34 1627.5 c.35&#xA;6.05 .72 78.5 .82 161 .1 82.5 .5 173.18 .89 201.5 .39 28.32 .82 173 .95&#xA;321.5 .14 148.5 -.07 271.2 -.47 272.66 -.46 1.73 -1.65 2.91 -3.38 3.38&#xA;-1.46 .39 -9.94 .99 -18.83 1.34 -8.89 .34 -16.49 .95 -16.89 1.35 -.4 .4&#xA;-.11 1.46 .64 2.36 1.22 1.47 4.37 1.6 30.07 1.24 26.02 -.36 28.9 -.57 30.72&#xA;-2.22 1.11 -1 2.53 -4.14 3.16 -6.97 .63 -2.83 3.56 -16.85 6.5 -31.15 6.73&#xA;-32.7 18.25 -88.27 20.94 -101 1.97 -9.35 5.63 -27.35 8.13 -40 2.5 -12.65&#xA;9.71 -49.1 16.02 -81 6.31 -31.9 14.37 -72.18 17.91 -89.5 3.54 -17.32 7.77&#xA;-38.47 9.4 -47 1.63 -8.53 6.16 -30.8 10.06 -49.5 3.9 -18.7 8.66 -42.1 10.57&#xA;-52 1.92 -9.9 12.69 -63.9 23.94 -120 11.25 -56.1 21.16 -106.5 22.02 -112&#xA;.86 -5.5 2.25 -12.43 3.09 -15.4 .84 -2.97 1.24 -6.56 .89 -7.98 -.36 -1.42&#xA;-2.74 -5.07 -5.3 -8.1 -2.56 -3.03 -8.04 -9.37 -12.17 -14.09 -4.14 -4.71&#xA;-15.49 -18.44 -25.24 -30.5 -9.74 -12.06 -25.19 -31.38 -34.33 -42.93 -9.14&#xA;-11.55 -24.82 -31.35 -34.85 -44 -10.03 -12.65 -22.01 -27.95 -26.62 -34&#xA;-4.61 -6.05 -14.32 -18.43 -21.57 -27.5 -7.25 -9.07 -14.21 -17.4 -15.45&#xA;-18.5 l-2.26 -2 .64 11z M2459.7 1693.25 c-6.29 5.09 -18.58 15.11 -27.31&#xA;22.28 -8.74 7.17 -30.24 23.82 -47.78 37 -22.63 17.01 -76.54 57.2 -104.97&#xA;78.26 -10.93 8.09 -20.94 15.99 -22.25 17.54 -1.31 1.55 -2.39 3.98 -2.39 5.4&#xA;0 1.42 -.66 5.99 -1.47 10.17 -7.04 36.37 -27.74 140.53 -31.62 159.1 -1.21&#xA;5.78 -4.18 19.5 -6.6 30.5 -2.42 11 -9.99 47.68 -16.81 81.5 -6.82 33.82&#xA;-18.46 91.43 -25.86 128 -7.4 36.57 -16.47 80.68 -20.14 98 -3.68 17.32 -7.49&#xA;35.78 -8.48 41 -.99 5.22 -4.57 23 -7.96 39.5 -3.39 16.5 -6.8 33.15 -7.59 37&#xA;-.78 3.85 -3.26 15.55 -5.51 26 -2.25 10.45 -5.83 27.1 -7.95 37 -2.12 9.9&#xA;-5.21 23.62 -6.86 30.5 -1.66 6.88 -2.98 13.75 -2.95 15.28 .03 1.75 .64 3.18&#xA;1.98 3.95 1.53 .88 10.16 1.44 30.46 1.44 26.56 0 28.28 -.28 30.33 -2.13&#xA;1.19 -1.08 4.24 -5.77 6.77 -10.41 2.53 -4.65 7.84 -15.47 11.8 -24.04 14.71&#xA;-31.89 21.9 -45.93 26.87 -52.5 2.95 -3.9 7.18 -10.01 9.41 -13.59 2.22 -3.57&#xA;5.44 -10.32 7.15 -15 1.71 -4.68 4.96 -15.25 7.22 -23.5 2.26 -8.25 4.21&#xA;-15.68 4.32 -16.5 .12 -.82 .54 -2.85 .94 -4.5 .4 -1.65 1.1 -3.9 1.56 -5 .46&#xA;-1.1 3.15 -9.43 5.97 -18.5 2.82 -9.07 6.89 -22.12 9.03 -29 2.15 -6.88 5.73&#xA;-18.75 7.96 -26.4 2.23 -7.64 4.05 -14.93 4.05 -16.19 0 -1.26 .39 -2.53 .86&#xA;-2.83 .47 -.29 1.64 -3.36 2.59 -6.81 .95 -3.45 4.81 -16.18 8.57 -28.28 3.76&#xA;-12.1 10.06 -33.03 13.98 -46.5 3.93 -13.47 8.68 -29.52 10.57 -35.66 1.89&#xA;-6.14 3.43 -12.01 3.43 -13.05 0 -1.04 .4 -2.32 .89 -2.84 .49 -.52 2.8 -7.25&#xA;5.13 -14.95 2.33 -7.7 4.83 -16.25 5.55 -19 .72 -2.75 3.41 -11.75 5.98 -20&#xA;2.57 -8.25 5.9 -19.5 7.4 -25 1.5 -5.5 10.02 -33.85 18.94 -63 8.92 -29.15&#xA;19.3 -62.9 23.08 -75 3.78 -12.1 10.77 -34.82 15.53 -50.5 4.76 -15.68 11.49&#xA;-37.28 14.95 -48 3.46 -10.72 8.2 -26.03 10.54 -34 2.34 -7.97 5.03 -16.53 6&#xA;-19 .96 -2.47 3.68 -11.47 6.03 -20 2.36 -8.53 5.07 -17.31 6.03 -19.52 .96&#xA;-2.21 3.59 -9.88 5.85 -17.03 2.26 -7.16 4.1 -14.65 4.1 -16.65 0 -2 .44&#xA;-3.78 .97 -3.97 .54 -.18 5.27 -13.08 10.52 -28.66 5.25 -15.58 10.66 -31.07&#xA;12.03 -34.42 1.36 -3.35 2.48 -6.24 2.48 -6.42 0 -.18 -.42 -.33 -.94 -.33&#xA;-.52 0 -6.08 4.16 -12.37 9.25z" fill="#006cd1" fill-rule="evenodd" stroke="#006cd1" stroke-linejoin="round" stroke-width="0.80"/>
<path d="M1781 2389.06 c-4.67 .42 -17.5 1.71 -28.5 2.87 -11 1.16 -26.75 2.96 -35&#xA;4.01 -8.25 1.05 -21.08 2.84 -28.5 3.98 -7.42 1.14 -20.47 3.47 -29 5.16&#xA;-8.53 1.69 -24.76 5.28 -36.08 7.96 -11.32 2.69 -25.83 6.48 -32.25 8.42&#xA;-6.42 1.95 -16.28 5.61 -21.92 8.14 -5.64 2.53 -12.95 6.17 -16.25 8.1 -3.3&#xA;1.92 -8.75 5.46 -12.12 7.85 -3.37 2.39 -8.18 6.65 -10.7 9.45 -2.52 2.81&#xA;-5.73 7.44 -7.12 10.29 -1.39 2.86 -2.82 7.28 -3.17 9.84 -.51 3.75 -.14 5.72&#xA;1.93 10.23 1.78 3.9 5.07 8.03 10.87 13.68 4.8 4.67 11.83 10.19 16.63 13.04&#xA;4.57 2.72 11.42 6.51 15.21 8.42 3.79 1.91 11.38 5.26 16.86 7.44 5.48 2.18&#xA;19.6 7.33 31.37 11.43 11.77 4.1 30.14 9.95 40.82 13.01 10.68 3.06 27.08&#xA;7.17 36.43 9.15 9.35 1.98 23.53 4.89 31.5 6.47 7.97 1.58 18.33 3.56 23 4.4&#xA;4.67 .84 20.2 3.32 34.5 5.52 14.3 2.2 31.4 4.7 38 5.56 6.6 .86 17.31 2.45&#xA;23.81 3.54 6.5 1.09 12.65 2.43 13.68 2.98 1.03 .55 2.85 1 4.05 1 1.87 0&#xA;2.08 -.39 1.51 -2.75 -.37 -1.51 -4.2 -14 -8.52 -27.75 -4.32 -13.75 -12.43&#xA;-39.62 -18.02 -57.5 -5.59 -17.88 -12.37 -39.32 -15.07 -47.66 -2.7 -8.34&#xA;-7.88 -25.21 -11.53 -37.5 -3.65 -12.29 -7.37 -23.69 -8.27 -25.34 -.9 -1.65&#xA;-2.09 -3.33 -2.64 -3.73 -.55 -.4 -2.35 -.68 -4 -.6 -1.65 .07 -6.83 .48&#xA;-11.5 .9z M2250.65 2395.83 c-.91 1.01 -1.65 2.61 -1.65 3.57 0 .96 -1.14&#xA;3.23 -2.54 5.06 -1.39 1.83 -2.44 3.71 -2.33 4.18 .11 .47 -.17 2.66 -.62&#xA;4.86 -.45 2.2 -1.46 5.52 -2.24 7.39 -.78 1.86 -1.45 4.79 -1.49 6.5 -.04&#xA;1.71 -.64 4.01 -1.33 5.11 -.69 1.1 -1.55 3.57 -1.92 5.5 -.37 1.93 -2.03&#xA;7.78 -3.68 13 -1.65 5.22 -3.42 9.93 -3.93 10.45 -.5 .52 -.92 1.96 -.92 3.2&#xA;0 1.24 -.52 3.4 -1.16 4.8 -.64 1.4 -1.48 2.55 -1.87 2.55 -.39 0 -1.01 1.85&#xA;-1.37 4.1 -.46 2.85 -1.24 4.25 -2.56 4.6 -1.23 .32 -1.69 1.05 -1.3 2.06 .52&#xA;1.34 .45 1.47 -.46 .91 -.59 -.36 -1.33 .04 -1.66 .89 -.38 .98 -.19 1.29 .52&#xA;.86 .68 -.42 .93 -.14 .63 .7 -.27 .76 -1.19 1.27 -2.04 1.12 -1.01 -.18&#xA;-1.97 .96 -2.73 3.26 -.64 1.94 -1.55 3.3 -2.01 3.01 -.47 -.29 -1.14 .39&#xA;-1.49 1.51 -.35 1.12 -1.06 1.77 -1.57 1.46 -.51 -.32 -.93 .13 -.93 .99 0&#xA;.86 -.68 1.56 -1.52 1.56 -1.11 0 -1.35 .66 -.9 2.46 .46 1.82 -.01 3.05&#xA;-1.81 4.75 -1.33 1.26 -2.76 3.19 -3.16 4.29 -.41 1.1 -.67 2.17 -.59 2.39&#xA;.08 .21 -.28 .66 -.81 1 -.53 .34 -1.88 2.64 -3.01 5.11 -1.13 2.47 -3.89&#xA;6.28 -6.13 8.45 -2.24 2.17 -4.08 4.87 -4.09 6 -.01 1.53 -.23 1.7 -.88 .69&#xA;-.67 -1.06 -1.01 -1.12 -1.53 -.27 -.37 .6 -.18 2 .41 3.11 .78 1.47 .78 2.59&#xA;-.03 4.1 -.69 1.28 -1.7 1.85 -2.65 1.49 -1.22 -.47 -1.45 .02 -1.11 2.36 .24&#xA;1.62 .18 2.93 -.13 2.89 -.31 -.03 -1.02 0 -1.57 .08 -.55 .07 -.32 .57 .5&#xA;1.1 1.2 .78 1.25 .97 .25 .98 -.69 .01 -1.25 .72 -1.25 1.57 0 .86 -.45 1.28&#xA;-1 .94 -.55 -.34 -1 .08 -1 .94 0 .86 -.47 1.56 -1.04 1.56 -.57 0 -.95 .56&#xA;-.84 1.25 .11 .69 -.14 2.04 -.56 3 -.42 .96 -1.37 1.75 -2.1 1.75 -.73 0&#xA;-1.64 .5 -2.02 1.11 -.38 .61 -.1 1.48 .63 1.92 1.09 .68 1.08 1.09 -.06 2.46&#xA;-1.18 1.42 -1.17 1.79 .06 2.64 .66 .46 .98 .69 .87 .74 -.11 .05 -.64 -.09&#xA;-1.68 -.38 -1.67 -.47 -2.25 -.34 -2.25 .49 0 .62 -.4 .88 -.88 .58 -.49 -.3&#xA;-1.85 1.7 -3.03 4.44 -1.18 2.74 -2.74 4.99 -3.46 4.99 -.72 0 -2.13 .9 -3.12&#xA;2 -1.37 1.51 -2.13 1.73 -3.14 .89 -.85 -.71 -1.97 -.83 -3.1 -.35 -.97 .42&#xA;-2.33 .88 -3.01 1.02 -.69 .14 -1.25 -.15 -1.25 -.65 0 -.5 -.71 -.91 -1.57&#xA;-.91 -.86 0 -2.25 -.68 -3.08 -1.51 -.83 -.83 -2.01 -1.2 -2.61 -.83 -.7 .43&#xA;-.39 .96 .83 1.44 l1.93 .76 -2.25 .07 c-1.43 .04 -2.25 -.52 -2.25 -1.54 0&#xA;-1.05 -.54 -1.4 -1.58 -1 -.87 .33 -1.88 .64 -2.25 .68 -.37 .04 .23 .46 1.33&#xA;.93 l2 .86 -2.25 .07 c-1.24 .04 -2.25 -.38 -2.25 -.93 0 -.55 -.86 -1 -1.92&#xA;-1 -1.05 0 -2.14 .56 -2.42 1.25 -.3 .75 -.54 .55 -.58 -.5 -.04 -.96 -.53&#xA;-1.75 -1.08 -1.75 -.55 0 -1 .42 -1 .93 0 .58 -.95 .76 -2.5 .48 -1.38 -.25&#xA;-2.5 .01 -2.5 .57 0 .56 -.93 1.02 -2.06 1.02 -1.13 0 -1.78 -.44 -1.45 -.99&#xA;.5 -.81 .35 -.89 -.84 -.43 -.8 .31 -1.75 .08 -2.11 -.51 -.36 -.59 -1.79&#xA;-1.07 -3.16 -1.07 -1.39 0 -2.23 .44 -1.89 .99 .53 .85 .43 .92 -.69 .49 -.84&#xA;-.32 -1.75 .93 -2.55 3.5 -.69 2.2 -1.25 4.44 -1.25 4.99 0 .54 1.33 1.68&#xA;2.95 2.52 2.42 1.25 7.3 1.51 27.25 1.44 13.36 -.05 26.55 -.39 29.29 -.75&#xA;l4.99 -.66 5.24 -9.5 c2.88 -5.22 8.03 -15.57 11.44 -23 12.34 -26.86 23.95&#xA;-50.06 26.55 -53.03 1.67 -1.91 5.65 -7.52 8.85 -12.47 3.2 -4.95 7.09 -12.38&#xA;8.65 -16.5 1.56 -4.12 4.12 -12 5.69 -17.5 1.57 -5.5 3.86 -13.82 5.08 -18.5&#xA;1.23 -4.68 2.5 -9.18 2.82 -10 .32 -.82 .65 -1.95 .73 -2.5 .08 -.55 .68&#xA;-3.03 1.35 -5.5 .67 -2.47 1.62 -5.4 2.11 -6.5 .49 -1.1 1.2 -3.08 1.57 -4.4&#xA;.37 -1.32 .65 -4.17 .62 -6.33 -.04 -2.89 .3 -3.79 1.29 -3.42 .97 .37 1.44&#xA;-.71 1.7 -3.92 .19 -2.44 .31 -4.43 .25 -4.43 -.06 0 -.85 .82 -1.76 1.83z&#xA;M2439.56 2421.53 c-1.29 1.39 -4.6 6.45 -7.35 11.25 -2.75 4.8 -7.77 14.28&#xA;-11.16 21.07 -3.39 6.79 -11.37 21.87 -17.73 33.5 -6.36 11.63 -15.19 27.45&#xA;-19.62 35.15 -4.43 7.7 -12.47 22.04 -17.87 31.87 -5.4 9.83 -9.82 18.53&#xA;-9.82 19.35 0 1.16 1.03 1.38 4.75 1.04 2.61 -.24 9.93 -1.8 16.25 -3.46 6.32&#xA;-1.67 17.8 -4.49 25.5 -6.29 7.7 -1.79 20.3 -4.99 28 -7.09 7.7 -2.11 23.68&#xA;-7.05 35.5 -10.98 11.82 -3.93 28.25 -9.85 36.5 -13.16 8.25 -3.31 20.66&#xA;-8.88 27.57 -12.38 6.91 -3.5 17.32 -9.49 23.12 -13.33 5.81 -3.83 12.3 -8.96&#xA;14.44 -11.38 2.13 -2.42 4.89 -6.43 6.13 -8.91 1.6 -3.21 2.25 -6.27 2.25&#xA;-10.7 0 -4.72 -.65 -7.53 -2.72 -11.75 -4.04 -8.24 -12.89 -15.81 -27.01&#xA;-23.09 -6.48 -3.34 -16.45 -7.69 -22.16 -9.67 -5.71 -1.98 -13.81 -4.47 -18&#xA;-5.53 -4.19 -1.06 -13.18 -2.86 -19.98 -3.99 -6.8 -1.13 -17.37 -2.51 -23.5&#xA;-3.05 -6.13 -.54 -13.3 -.99 -15.94 -.99 -3.86 -.01 -5.26 .49 -7.14 2.52z&#xA;M1513.68 2532.66 c-.37 .37 -.68 29.57 -.68 64.89 0 52.37 -.25 64.42 -1.34&#xA;65.32 -.96 .8 -42.1 1.19 -146.75 1.38 -113.38 .21 -146.21 .55 -149.04 1.53&#xA;-2 .69 -5.33 2.6 -7.4 4.25 -2.07 1.65 -4.83 4.43 -6.12 6.18 -1.29 1.75&#xA;-3.29 5.68 -4.44 8.74 -1.76 4.66 -2.09 7.75 -2.07 19.23 .02 11.43 .44 15.24&#xA;2.57 23.24 1.4 5.26 3.52 11.48 4.71 13.83 1.19 2.35 3 5.34 4.03 6.65 1.03&#xA;1.31 4.45 4.4 7.61 6.85 3.16 2.46 10.02 6.98 15.25 10.05 15.72 9.24 84.14&#xA;49.91 93 55.27 7.97 4.83 21.25 12.9 29.5 17.94 8.25 5.03 24 14.45 35 20.94&#xA;11 6.48 23.6 14.03 28 16.78 4.4 2.75 11.15 6.81 15 9.04 16.09 9.29 63.8&#xA;37.6 70 41.54 6.05 3.84 13.7 9.03 17 11.53 3.3 2.5 10.45 8.85 15.89 14.11&#xA;5.44 5.26 13.79 14.77 18.57 21.14 4.78 6.36 10.74 15.36 13.25 20 2.51 4.64&#xA;6.25 12.93 8.3 18.43 2.05 5.5 5.03 15.18 6.62 21.5 2.05 8.18 3.23 16.3 4.06&#xA;28.15 .89 12.64 .9 20.7 .03 33.5 -.9 13.27 -1.88 19.75 -4.62 30.51 -1.91&#xA;7.51 -5.51 18.72 -7.99 24.9 -2.48 6.18 -6.63 14.89 -9.21 19.34 -2.58 4.45&#xA;-7.17 11.47 -10.19 15.6 -3.02 4.12 -10.97 12.91 -17.66 19.52 -7.71 7.62&#xA;-16.12 14.71 -22.95 19.36 -5.93 4.04 -16.25 9.93 -22.94 13.11 -6.69 3.17&#xA;-15.08 6.71 -18.66 7.85 -3.58 1.15 -10.78 3.05 -16 4.23 -7.95 1.79 -13.74&#xA;2.21 -35.5 2.6 -14.3 .26 -27.58 .94 -29.5 1.52 -1.92 .58 -6.23 2.99 -9.57&#xA;5.35 -3.34 2.36 -7.31 5.91 -8.81 7.89 -1.51 1.98 -3.62 5.58 -4.7 8.02 -1.9&#xA;4.3 -1.95 6.92 -1.69 92.23 l.27 87.81 2.17 4.05 c1.19 2.23 4.25 6.37 6.79&#xA;9.19 2.79 3.11 7.04 6.35 10.74 8.2 l6.12 3.06 144.3 0 c143.73 0 144.32 -.01&#xA;149.59 -2.08 2.91 -1.14 7.68 -3.88 10.6 -6.08 2.92 -2.2 7.94 -7.55 11.15&#xA;-11.88 3.21 -4.33 9.11 -13.41 13.1 -20.17 4.9 -8.29 9.42 -14.46 13.89&#xA;-18.94 5.68 -5.7 7.62 -6.96 13.58 -8.88 l6.96 -2.23 265.87 -.25 c146.23&#xA;-.14 279.65 .05 296.5 .42 29.17 .65 30.88 .79 35.91 3.02 7.59 3.37 16.37&#xA;13.26 23.22 26.19 3.03 5.71 8.08 14.27 11.24 19.01 3.16 4.75 7.34 10.04&#xA;9.29 11.76 1.96 1.72 6.35 4.58 9.76 6.37 l6.21 3.24 144.88 .26 144.88 .26&#xA;5.24 -2.4 c2.88 -1.32 7.03 -4.02 9.22 -5.99 2.19 -1.98 5.43 -6.32 7.21&#xA;-9.66 2.59 -4.86 3.41 -7.88 4.12 -15.27 .49 -5.06 .89 -41.38 .89 -80.71 -0&#xA;-39.32 -.39 -74.51 -.87 -78.18 -.47 -3.67 -2.05 -9.27 -3.49 -12.43 -1.45&#xA;-3.16 -4.22 -7.69 -6.17 -10.07 -1.94 -2.37 -5.53 -5.48 -7.97 -6.91 -2.44&#xA;-1.43 -6.8 -3.19 -9.69 -3.91 -3.2 -.8 -14.43 -1.51 -28.75 -1.83 -17.96 -.39&#xA;-25.98 -1 -34 -2.57 -5.78 -1.13 -13.88 -3.14 -18 -4.46 -4.12 -1.33 -11.1&#xA;-3.95 -15.5 -5.83 -4.4 -1.88 -11.19 -5.29 -15.1 -7.57 -3.9 -2.28 -10.69&#xA;-6.86 -15.07 -10.17 -4.39 -3.31 -12.45 -10.65 -17.92 -16.3 -5.47 -5.65&#xA;-12.72 -14.36 -16.12 -19.36 -3.4 -5 -8.7 -13.84 -11.77 -19.65 -3.07 -5.81&#xA;-6.91 -14.16 -8.51 -18.57 -1.61 -4.4 -3.83 -11.56 -4.94 -15.91 -1.11 -4.35&#xA;-3 -13.73 -4.19 -20.85 -1.74 -10.37 -2.17 -17.02 -2.17 -33.44 0 -14.56 .46&#xA;-22.82 1.58 -28.5 .86 -4.4 1.87 -10.25 2.23 -13 .36 -2.75 2 -9.2 3.64&#xA;-14.33 1.64 -5.13 4.47 -12.78 6.29 -17 1.82 -4.22 5.59 -11.6 8.38 -16.41&#xA;2.79 -4.81 7.86 -12.46 11.27 -17 3.41 -4.54 11.42 -13.44 17.8 -19.77 8.47&#xA;-8.4 15.25 -13.96 25.1 -20.57 7.43 -4.98 16.88 -11.08 21 -13.56 4.12 -2.48&#xA;15.38 -9.15 25 -14.83 9.62 -5.68 20.2 -11.99 23.5 -14.04 3.3 -2.05 25.12&#xA;-15.19 48.5 -29.21 23.38 -14.02 55.1 -33.06 70.5 -42.31 15.4 -9.25 42.62&#xA;-25.78 60.5 -36.74 17.88 -10.96 35.69 -22.31 39.59 -25.23 3.9 -2.92 8.52&#xA;-7.46 10.27 -10.1 1.75 -2.64 4.28 -8.3 5.64 -12.58 2.26 -7.16 2.51 -9.9&#xA;3.08 -34.05 .37 -15.64 .21 -30.38 -.4 -36.45 -1.35 -13.52 -4.43 -20.47&#xA;-12.3 -27.76 -3.58 -3.31 -7.85 -6.13 -11.1 -7.33 -5.17 -1.91 -8.35 -1.94&#xA;-145.1 -1.45 -107.23 .38 -140.09 .22 -141 -.69 -.85 -.85 -1.39 -11.92 -1.89&#xA;-38.89 -.38 -20.74 -.98 -40.96 -1.33 -44.94 -.35 -3.98 -.94 -7.43 -1.32&#xA;-7.66 -.37 -.23 -8.21 3.76 -17.4 8.87 -9.2 5.11 -22.46 11.89 -29.48 15.06&#xA;-7.02 3.17 -20.19 8.8 -29.26 12.51 -9.07 3.71 -24.35 9.28 -33.95 12.37 -9.6&#xA;3.09 -22.42 7.01 -28.5 8.71 -6.08 1.7 -15.37 4.39 -20.64 5.98 -5.28 1.59&#xA;-20.35 5.56 -33.5 8.81 -13.15 3.25 -29.75 7.08 -36.9 8.52 -26.74 5.36&#xA;-33.09 6.99 -36.27 9.32 -1.8 1.32 -6.95 7.2 -11.45 13.08 -4.92 6.42 -17.96&#xA;20.45 -32.73 35.18 -13.5 13.48 -30.66 29.9 -38.13 36.5 -7.47 6.6 -17.37&#xA;15.23 -22 19.18 -4.63 3.95 -12.96 10.93 -18.51 15.5 -5.55 4.57 -15.87 12.82&#xA;-22.93 18.32 -7.06 5.5 -14.44 11.39 -16.4 13.08 -1.96 1.7 -10.55 8.32&#xA;-19.07 14.71 -8.53 6.4 -17.79 13.58 -20.59 15.97 -2.8 2.39 -6.35 5.25 -7.88&#xA;6.37 -2.65 1.93 -2.73 2.22 -1.59 5.68 .66 2.01 3.34 6.92 5.96 10.92 2.61 4&#xA;6.68 9.52 9.04 12.27 2.36 2.75 6.34 6.65 8.86 8.67 2.52 2.02 6.48 4.21 8.81&#xA;4.86 3.19 .89 6.22 .92 12.28 .1 4.43 -.6 18.07 -3.55 30.33 -6.58 12.25&#xA;-3.02 29.65 -7.5 38.66 -9.94 9.01 -2.45 17 -4.21 17.76 -3.92 .76 .29 2 .02&#xA;2.76 -.61 .76 -.63 4.13 -2.22 7.49 -3.54 3.36 -1.32 6.11 -2.15 6.11 -1.85 0&#xA;.3 .68 -.01 1.5 -.7 1.28 -1.06 1.5 -.81 1.5 1.69 0 1.61 -1.11 5.77 -2.47&#xA;9.23 -1.36 3.46 -2.88 6.81 -3.37 7.44 -.5 .63 -1.14 2.49 -1.42 4.14 -.28&#xA;1.65 -4.89 15.6 -10.24 31 -5.35 15.4 -10.84 31.38 -12.21 35.5 -1.39 4.2&#xA;-2.72 11.04 -3.01 15.55 -.38 5.76 -.08 9.61 1.07 13.55 .88 3.02 3.38 8.26&#xA;5.57 11.64 6.24 9.66 19.34 19.72 47.27 36.31 13.38 7.94 27.06 16.3 30.4&#xA;18.58 3.35 2.28 7.17 4.47 8.5 4.88 1.33 .41 4.78 2.14 7.67 3.86 2.89 1.71&#xA;5.52 3.95 5.85 4.98 .33 1.02 .09 2.38 -.53 3.01 -.62 .63 -4.71 2.95 -9.09&#xA;5.15 -4.38 2.2 -12.36 6.68 -17.73 9.95 -18.36 11.2 -49.31 30.46 -53.45&#xA;33.26 -3.68 2.49 -10.32 8.25 -14.75 12.79 -4.47 4.58 -8.93 10.22 -10.01&#xA;12.66 -1.07 2.42 -2.34 6.88 -2.81 9.89 -.6 3.85 -.46 7.86 .48 13.46 .74&#xA;4.39 2.69 12.85 4.34 18.8 1.65 5.95 6.09 19.23 9.87 29.5 3.78 10.27 7.82&#xA;21.76 8.97 25.53 1.16 3.77 2.1 7.91 2.1 9.19 0 1.28 .41 2.59 .92 2.91 .51&#xA;.31 1.93 3.6 3.16 7.31 1.23 3.71 2.21 6.96 2.16 7.24 -.04 .28 .4 1.07 .98&#xA;1.77 .58 .7 .78 1.55 .44 1.89 -.34 .34 -1.23 .11 -1.98 -.52 -.75 -.62 -1.63&#xA;-.87 -1.96 -.54 -.33 .33 -3.54 -.39 -7.15 -1.59 -3.6 -1.2 -6.81 -2.6 -7.12&#xA;-3.1 -.31 -.51 -1.73 -.92 -3.15 -.92 -1.42 0 -5.78 -.94 -9.69 -2.09 -3.91&#xA;-1.15 -18.58 -5.72 -32.61 -10.16 -14.03 -4.44 -29.1 -9.16 -33.5 -10.5 -4.4&#xA;-1.33 -11.66 -2.67 -16.13 -2.97 -4.47 -.3 -9.71 -.25 -11.64 .11 -1.93 .36&#xA;-5.64 2.28 -8.24 4.27 -2.6 1.99 -7.94 8.01 -11.86 13.4 -3.92 5.38 -8.92&#xA;12.63 -11.1 16.11 -2.18 3.48 -8.04 12.86 -13.02 20.83 -4.98 7.97 -11.57&#xA;18.32 -14.64 23 -3.07 4.68 -7.96 13 -10.88 18.5 -2.92 5.5 -6.12 11.05 -7.11&#xA;12.33 l-1.81 2.33 -3.29 -4.65 c-1.81 -2.56 -6.71 -10.58 -10.88 -17.83 -4.18&#xA;-7.25 -12.91 -21.96 -19.41 -32.69 -6.5 -10.72 -14.24 -23.26 -17.19 -27.85&#xA;-2.96 -4.59 -7.16 -10.76 -9.34 -13.7 -2.77 -3.75 -6.13 -6.64 -11.21 -9.63&#xA;-6.47 -3.81 -7.9 -4.26 -13.25 -4.18 -3.3 .05 -10.5 1.26 -16 2.68 -5.5 1.42&#xA;-17.65 5.04 -27 8.03 -9.35 2.99 -24.48 7.74 -33.62 10.54 -9.14 2.81 -18 5.1&#xA;-19.69 5.1 -1.69 0 -3.34 .44 -3.68 .99 -.34 .54 -3.17 1.74 -6.31 2.67 -3.13&#xA;.92 -6.38 1.74 -7.22 1.81 -.83 .07 -2.07 .47 -2.75 .89 -.87 .54 -1.23 -.07&#xA;-1.22 -2.05 .01 -1.54 1.16 -6.41 2.56 -10.81 1.4 -4.4 3.13 -8.9 3.84 -10&#xA;.71 -1.1 1.87 -4.47 2.57 -7.5 .71 -3.03 3.93 -13.15 7.17 -22.5 3.24 -9.35&#xA;7.19 -21.5 8.79 -27 1.59 -5.5 4.06 -14.58 5.48 -20.18 1.42 -5.6 2.58 -12.12&#xA;2.58 -14.5 -0 -2.72 -1.11 -6.66 -2.98 -10.62 -1.64 -3.47 -5.13 -8.59 -7.75&#xA;-11.39 -2.62 -2.79 -9.46 -8.81 -15.19 -13.36 -5.73 -4.55 -14.06 -10.41&#xA;-18.5 -13 -4.44 -2.6 -13.47 -7.87 -20.07 -11.71 -6.6 -3.84 -15.6 -9.12 -20&#xA;-11.73 -4.4 -2.61 -8.46 -4.91 -9.02 -5.12 -.56 -.21 -4.61 -2.38 -9 -4.83&#xA;-4.39 -2.45 -8.77 -5.18 -9.73 -6.08 -1.66 -1.54 -1.63 -1.74 .62 -3.85 1.3&#xA;-1.23 6.42 -4.34 11.36 -6.92 4.94 -2.58 13.44 -7.34 18.88 -10.58 5.44 -3.24&#xA;15.76 -9.38 22.94 -13.65 7.18 -4.27 18.43 -11.25 25 -15.52 6.57 -4.26 14.16&#xA;-10.05 16.85 -12.85 2.7 -2.81 6.2 -7.13 7.79 -9.6 1.59 -2.47 3.82 -7.58&#xA;4.97 -11.35 1.54 -5.06 1.92 -8.22 1.47 -12.11 -.34 -2.9 -1.76 -9.27 -3.16&#xA;-14.15 -1.4 -4.89 -7.03 -22.68 -12.51 -39.54 -5.48 -16.86 -9.96 -31.39&#xA;-9.96 -32.29 0 -.9 -.65 -2.63 -1.45 -3.85 -.8 -1.22 -2.14 -4.88 -2.99 -8.14&#xA;-.85 -3.26 -1.39 -6.08 -1.2 -6.26 .19 -.19 3.44 .61 7.24 1.77 3.8 1.16 7.33&#xA;2.52 7.85 3.01 .52 .5 1.98 .91 3.23 .91 1.25 0 11.2 2.45 22.1 5.44 10.9&#xA;2.99 27.9 7.45 37.77 9.92 9.87 2.46 21.4 5.02 25.62 5.68 4.43 .7 10.05 .91&#xA;13.29 .51 3.39 -.42 8.66 -2.24 13.33 -4.58 7.25 -3.65 8.2 -4.53 15.84&#xA;-14.67 4.47 -5.94 11.07 -15.52 14.67 -21.29 4.65 -7.48 25.94 -41.97 32.07&#xA;-51.96 2.67 -4.36 5.71 -8.7 6.75 -9.64 1.04 -.94 1.89 -2.47 1.89 -3.4 0&#xA;-.93 .83 -2.44 1.85 -3.37 1.76 -1.6 2.13 -1.33 7.75 5.51 3.24 3.95 7.02&#xA;8.38 8.4 9.83 1.38 1.45 2.39 2.44 2.26 2.18 -.13 -.25 1.49 -2.33 3.6 -4.62&#xA;2.11 -2.29 4.96 -6.16 6.33 -8.6 1.37 -2.44 4.89 -8.71 7.82 -13.94 2.93&#xA;-5.22 8.9 -15.8 13.27 -23.5 4.37 -7.7 13.54 -24.04 20.38 -36.31 6.84 -12.27&#xA;14.83 -27.57 17.76 -34 2.93 -6.43 5.66 -12.77 6.06 -14.08 l.74 -2.39 -25.36&#xA;.64 c-13.95 .35 -49.11 .93 -78.13 1.28 -34.81 .42 -61.7 .24 -79 -.53 -14.43&#xA;-.64 -40.41 -1.6 -57.73 -2.13 -17.33 -.53 -36.22 -1.41 -42 -1.96 -5.78 -.55&#xA;-16.12 -1.46 -22.98 -2.02 -6.86 -.56 -17.66 -1.71 -24 -2.56 -12.63 -1.7&#xA;-41.88 -6.03 -61.02 -9.03 -12.38 -1.94 -28.35 -4.64 -35.5 -5.99 -7.15 -1.35&#xA;-18.17 -3.6 -24.5 -4.99 -6.33 -1.39 -19.38 -4.5 -29 -6.92 -9.62 -2.42 -24.7&#xA;-6.68 -33.5 -9.48 -8.8 -2.8 -20.72 -6.69 -26.5 -8.64 -5.78 -1.95 -14.78&#xA;-5.36 -20 -7.57 -5.22 -2.21 -19.55 -8.91 -31.84 -14.88 -12.29 -5.97 -24.46&#xA;-12.17 -27.05 -13.76 -2.59 -1.6 -5.63 -3.19 -6.74 -3.54 -1.11 -.35 -2.32&#xA;-.34 -2.7 .04z M2025.79 2905.82 c-9.19 6.97 -22.11 16.65 -28.72 21.5 -6.61&#xA;4.85 -14.28 11.31 -17.06 14.36 -3.06 3.35 -6.77 9.13 -9.42 14.67 -2.4 5.03&#xA;-10.04 20.95 -16.98 35.38 -9.62 20.01 -12.61 27.18 -12.61 30.2 0 2.18 1.07&#xA;6.8 2.39 10.26 1.31 3.46 4.52 11.25 7.12 17.3 2.6 6.05 6.47 15.38 8.59&#xA;20.72 2.12 5.35 5.94 13.9 8.5 19 2.55 5.1 6.19 11.4 8.08 13.99 1.92 2.64&#xA;8.37 8.41 14.63 13.11 6.15 4.62 15.24 11.14 20.19 14.5 4.95 3.36 13.72 9.77&#xA;19.5 14.24 5.78 4.47 11.63 8.72 13.01 9.43 2.03 1.05 3.19 1.07 6 .09 1.92&#xA;-.67 7.09 -4.01 11.49 -7.43 4.4 -3.42 12.06 -9.3 17.02 -13.07 4.96 -3.77&#xA;14.45 -10.5 21.08 -14.96 6.63 -4.45 14.41 -10.58 17.28 -13.61 2.87 -3.03&#xA;6.51 -8.33 8.09 -11.77 1.58 -3.44 8.14 -18.41 14.57 -33.26 6.43 -14.85&#xA;12.11 -28.46 12.62 -30.24 .74 -2.6 .45 -4.38 -1.49 -9 -1.33 -3.17 -6.35&#xA;-15.44 -11.16 -27.26 -15.54 -38.19 -16.77 -40.8 -22.42 -47.29 -2.97 -3.42&#xA;-7.78 -8.01 -10.69 -10.21 -6.2 -4.7 -42.1 -31.48 -43.66 -32.58 -6.18 -4.33&#xA;-16.98 -10.9 -17.84 -10.85 -.77 .04 -8.93 5.78 -18.12 12.75z" fill="#162f4c" fill-rule="evenodd" stroke="#162f4c" stroke-linejoin="round" stroke-opacity="0.50" stroke-width="1.20"/>
</svg>